<svg width="25" height="25" viewBox="0 0 25 25" fill="none" xmlns="http://www.w3.org/2000/svg">
<mask id="mask0_1166_1095" style="mask-type:alpha" maskUnits="userSpaceOnUse" x="0" y="0" width="25" height="25">
<rect x="0.115234" y="0.45459" width="24" height="24" fill="#D9D9D9"/>
</mask>
<g mask="url(#mask0_1166_1095)">
<path d="M7.11523 17.4546H9.11523V12.4546H7.11523V17.4546ZM15.1152 17.4546H17.1152V7.45459H15.1152V17.4546ZM11.1152 17.4546H13.1152V14.4546H11.1152V17.4546ZM11.1152 12.4546H13.1152V10.4546H11.1152V12.4546ZM5.11523 21.4546C4.56523 21.4546 4.0944 21.2588 3.70273 20.8671C3.31107 20.4754 3.11523 20.0046 3.11523 19.4546V5.45459C3.11523 4.90459 3.31107 4.43376 3.70273 4.04209C4.0944 3.65042 4.56523 3.45459 5.11523 3.45459H19.1152C19.6652 3.45459 20.1361 3.65042 20.5277 4.04209C20.9194 4.43376 21.1152 4.90459 21.1152 5.45459V19.4546C21.1152 20.0046 20.9194 20.4754 20.5277 20.8671C20.1361 21.2588 19.6652 21.4546 19.1152 21.4546H5.11523ZM5.11523 19.4546H19.1152V5.45459H5.11523V19.4546Z" fill="#1C1B1F"/>
</g>
</svg>
