<?xml version="1.0" encoding="UTF-8"?>
<!DOCTYPE svg PUBLIC "-//W3C//DTD SVG 1.1//EN" "http://www.w3.org/Graphics/SVG/1.1/DTD/svg11.dtd">
<!-- Creator: CorelDRAW -->
<svg xmlns="http://www.w3.org/2000/svg" 
     width="10.9321cm" 
     height="16.1479cm" 
     viewBox="0 0 10932.12 16147.94"
     style="shape-rendering:geometricPrecision; text-rendering:geometricPrecision; image-rendering:optimizeQuality; fill-rule:evenodd; clip-rule:evenodd">
  <defs>
    <style>
      .str0 { stroke: #2B2A29; stroke-width: 15; stroke-miterlimit: 22.9256; }
      .fil4 { fill: none; }
      .fil1 { fill: black; }
      .fil5 { fill: black; }
      .fil0 { fill: #00528E; }
      .fil7 { fill: #00923F; }
      .fil9 { fill: #0093DD; }
      .fil6 { fill: #DA251C; }
      .fil2 { fill: #FFFA9C; }
      .fil8 { fill: white; }
      .fil3 { fill: #2B2A29; fill-rule: nonzero; }
    </style>
   <clipPath id="id0">
    <path d="M2304.44 4251.07l61.19 53.41 0 457.71 -157.21 5.3 61.19 53.41 0 491.59 -359.65 1.67 68.04 256.61 42.33 53.41 0 128.68 243.86 0 0 226.43 28.45 0 0 226.8 6358.13 0 0 -226.8 28.45 0 0 -226.43 243.86 0 0 -128.68 42.33 -53.41 68.04 -256.61 -359.65 -1.67 0 -491.59 61.19 -53.41 -157.21 -5.3 0 -457.71 61.19 -53.41 -6334.53 0z"/>
   </clipPath>
   <clipPath id="id1">
    <path d="M2292.82 11720.24l69.42 0c-25.45,-0.33 -46.16,-21.24 -46.16,-46.75l0 -0.01c0,-25.73 21.04,-46.77 46.76,-46.77l10.88 0c-39.37,-1614.07 -37.24,-3237.01 0,-4867.47l-14.23 0c-25.27,0 -46,-20.7 -46,-46 0,-25.3 20.7,-46 46,-46l41.76 0 0 -0.68c-25.3,0 -46,-20.7 -46,-46 0,-25.3 20.7,-46 46,-46l84.4 0c-11.35,-7.96 -18.73,-20.81 -18.73,-35.31 0,-8.78 2.7,-16.95 7.35,-23.8l0 -72.64 -0.34 0c-10.83,58.23 -61.89,102.31 -123.26,102.31 -69.25,0 -125.39,-56.14 -125.39,-125.39 0,-58.93 40.65,-108.35 95.44,-121.78l-65.71 -18.9 0 -31.65 -32.91 -41.29 314.99 0 0 -0.02 23.05 0 127.91 0 23.05 0 0 0.02 314.99 0 -32.91 41.29 0 31.65 -65.71 18.9c54.79,13.43 95.44,62.85 95.44,121.78 0,69.25 -56.14,125.39 -125.39,125.39 -61.37,0 -112.43,-44.08 -123.26,-102.31l-0.34 0 0 72.64c4.65,6.85 7.35,15.02 7.35,23.8 0,14.5 -7.38,27.35 -18.73,35.31l84.4 0c25.3,0 46,20.7 46,46 0,25.3 -20.7,46 -46,46l0 0.68 41.76 0c25.3,0 46,20.7 46,46 0,25.3 -20.73,46 -46,46l-14.23 0c37.24,1630.46 39.37,3253.4 0,4867.47l10.88 0c25.72,0 46.76,21.04 46.76,46.77l0 0.01c0,25.51 -20.71,46.42 -46.16,46.75l69.42 0 0 101.9 -251.75 0 -159.05 0 -251.75 0 0 -101.9z"/>
   </clipPath>
   <clipPath id="id2">
    <path d="M3143.8 11720.24l69.42 0c-25.45,-0.33 -46.16,-21.24 -46.16,-46.75l0 -0.01c0,-25.73 21.04,-46.77 46.76,-46.77l10.88 0c-39.37,-1614.07 -37.24,-3237.01 0,-4867.47l-14.23 0c-25.27,0 -46,-20.7 -46,-46 0,-25.3 20.7,-46 46,-46l41.76 0 0 -0.68c-25.3,0 -46,-20.7 -46,-46 0,-25.3 20.7,-46 46,-46l84.4 0c-11.35,-7.96 -18.73,-20.81 -18.73,-35.31 0,-8.78 2.7,-16.95 7.35,-23.8l0 -72.64 -0.34 0c-10.83,58.23 -61.89,102.31 -123.26,102.31 -69.25,0 -125.39,-56.14 -125.39,-125.39 0,-58.93 40.65,-108.35 95.44,-121.78l-65.71 -18.9 0 -31.65 -32.91 -41.29 314.99 0 0 -0.02 23.05 0 127.91 0 23.05 0 0 0.02 314.99 0 -32.91 41.29 0 31.65 -65.71 18.9c54.79,13.43 95.44,62.85 95.44,121.78 0,69.25 -56.14,125.39 -125.39,125.39 -61.37,0 -112.43,-44.08 -123.26,-102.31l-0.34 0 0 72.64c4.65,6.85 7.35,15.02 7.35,23.8 0,14.5 -7.38,27.35 -18.73,35.31l84.4 0c25.3,0 46,20.7 46,46 0,25.3 -20.7,46 -46,46l0 0.68 41.76 0c25.3,0 46,20.7 46,46 0,25.3 -20.73,46 -46,46l-14.23 0c37.24,1630.46 39.37,3253.4 0,4867.47l10.88 0c25.72,0 46.76,21.04 46.76,46.77l0 0.01c0,25.51 -20.71,46.42 -46.16,46.75l69.42 0 0 101.9 -251.75 0 -159.05 0 -251.75 0 0 -101.9z"/>
   </clipPath>
   <clipPath id="id3">
    <path d="M4479.33 11720.24l69.42 0c-25.45,-0.33 -46.16,-21.24 -46.16,-46.75l0 -0.01c0,-25.73 21.04,-46.77 46.76,-46.77l10.88 0c-39.37,-1614.07 -37.24,-3237.01 0,-4867.47l-14.23 0c-25.27,0 -46,-20.7 -46,-46 0,-25.3 20.7,-46 46,-46l41.76 0 0 -0.68c-25.3,0 -46,-20.7 -46,-46 0,-25.3 20.7,-46 46,-46l84.4 0c-11.35,-7.96 -18.73,-20.81 -18.73,-35.31 0,-8.78 2.7,-16.95 7.35,-23.8l0 -72.64 -0.34 0c-10.83,58.23 -61.89,102.31 -123.26,102.31 -69.25,0 -125.39,-56.14 -125.39,-125.39 0,-58.93 40.65,-108.35 95.44,-121.78l-65.71 -18.9 0 -31.65 -32.91 -41.29 314.99 0 0 -0.02 23.05 0 127.91 0 23.05 0 0 0.02 314.99 0 -32.91 41.29 0 31.65 -65.71 18.9c54.79,13.43 95.44,62.85 95.44,121.78 0,69.25 -56.14,125.39 -125.39,125.39 -61.37,0 -112.43,-44.08 -123.26,-102.31l-0.34 0 0 72.64c4.65,6.85 7.35,15.02 7.35,23.8 0,14.5 -7.38,27.35 -18.73,35.31l84.4 0c25.3,0 46,20.7 46,46 0,25.3 -20.7,46 -46,46l0 0.68 41.76 0c25.3,0 46,20.7 46,46 0,25.3 -20.73,46 -46,46l-14.23 0c37.24,1630.46 39.37,3253.4 0,4867.47l10.88 0c25.72,0 46.76,21.04 46.76,46.77l0 0.01c0,25.51 -20.71,46.42 -46.16,46.75l69.42 0 0 101.9 -251.75 0 -159.05 0 -251.75 0 0 -101.9z"/>
   </clipPath>
   <clipPath id="id4">
    <path d="M5798.47 11720.24l69.42 0c-25.45,-0.33 -46.16,-21.24 -46.16,-46.75l0 -0.01c0,-25.73 21.04,-46.77 46.76,-46.77l10.88 0c-39.37,-1614.07 -37.24,-3237.01 0,-4867.47l-14.23 0c-25.27,0 -46,-20.7 -46,-46 0,-25.3 20.7,-46 46,-46l41.76 0 0 -0.68c-25.3,0 -46,-20.7 -46,-46 0,-25.3 20.7,-46 46,-46l84.4 0c-11.35,-7.96 -18.73,-20.81 -18.73,-35.31 0,-8.78 2.7,-16.95 7.35,-23.8l0 -72.64 -0.34 0c-10.83,58.23 -61.89,102.31 -123.26,102.31 -69.25,0 -125.39,-56.14 -125.39,-125.39 0,-58.93 40.65,-108.35 95.44,-121.78l-65.71 -18.9 0 -31.65 -32.91 -41.29 314.99 0 0 -0.02 23.05 0 127.91 0 23.05 0 0 0.02 314.99 0 -32.91 41.29 0 31.65 -65.71 18.9c54.79,13.43 95.44,62.85 95.44,121.78 0,69.25 -56.14,125.39 -125.39,125.39 -61.37,0 -112.43,-44.08 -123.26,-102.31l-0.34 0 0 72.64c4.65,6.85 7.35,15.02 7.35,23.8 0,14.5 -7.38,27.35 -18.73,35.31l84.4 0c25.3,0 46,20.7 46,46 0,25.3 -20.7,46 -46,46l0 0.68 41.76 0c25.3,0 46,20.7 46,46 0,25.3 -20.73,46 -46,46l-14.23 0c37.24,1630.46 39.37,3253.4 0,4867.47l10.88 0c25.72,0 46.76,21.04 46.76,46.77l0 0.01c0,25.51 -20.71,46.42 -46.16,46.75l69.42 0 0 101.9 -251.75 0 -159.05 0 -251.75 0 0 -101.9z"/>
   </clipPath>
   <clipPath id="id5">
    <path d="M7125.81 11720.24l69.42 0c-25.45,-0.33 -46.16,-21.24 -46.16,-46.75l0 -0.01c0,-25.73 21.04,-46.77 46.76,-46.77l10.88 0c-39.37,-1614.07 -37.24,-3237.01 0,-4867.47l-14.23 0c-25.27,0 -46,-20.7 -46,-46 0,-25.3 20.7,-46 46,-46l41.76 0 0 -0.68c-25.3,0 -46,-20.7 -46,-46 0,-25.3 20.7,-46 46,-46l84.4 0c-11.35,-7.96 -18.73,-20.81 -18.73,-35.31 0,-8.78 2.7,-16.95 7.35,-23.8l0 -72.64 -0.34 0c-10.83,58.23 -61.89,102.31 -123.26,102.31 -69.25,0 -125.39,-56.14 -125.39,-125.39 0,-58.93 40.65,-108.35 95.44,-121.78l-65.71 -18.9 0 -31.65 -32.91 -41.29 314.99 0 0 -0.02 23.05 0 127.91 0 23.05 0 0 0.02 314.99 0 -32.91 41.29 0 31.65 -65.71 18.9c54.79,13.43 95.44,62.85 95.44,121.78 0,69.25 -56.14,125.39 -125.39,125.39 -61.37,0 -112.43,-44.08 -123.26,-102.31l-0.34 0 0 72.64c4.65,6.85 7.35,15.02 7.35,23.8 0,14.5 -7.38,27.35 -18.73,35.31l84.4 0c25.3,0 46,20.7 46,46 0,25.3 -20.7,46 -46,46l0 0.68 41.76 0c25.3,0 46,20.7 46,46 0,25.3 -20.73,46 -46,46l-14.23 0c37.24,1630.46 39.37,3253.4 0,4867.47l10.88 0c25.72,0 46.76,21.04 46.76,46.77l0 0.01c0,25.51 -20.71,46.42 -46.16,46.75l69.42 0 0 101.9 -251.75 0 -159.05 0 -251.75 0 0 -101.9z"/>
   </clipPath>
   <clipPath id="id6">
    <path d="M7986.12 11720.24l69.42 0c-25.45,-0.33 -46.16,-21.24 -46.16,-46.75l0 -0.01c0,-25.73 21.04,-46.77 46.76,-46.77l10.88 0c-39.37,-1614.07 -37.24,-3237.01 0,-4867.47l-14.23 0c-25.27,0 -46,-20.7 -46,-46 0,-25.3 20.7,-46 46,-46l41.76 0 0 -0.68c-25.3,0 -46,-20.7 -46,-46 0,-25.3 20.7,-46 46,-46l84.4 0c-11.35,-7.96 -18.73,-20.81 -18.73,-35.31 0,-8.78 2.7,-16.95 7.35,-23.8l0 -72.64 -0.34 0c-10.83,58.23 -61.89,102.31 -123.26,102.31 -69.25,0 -125.39,-56.14 -125.39,-125.39 0,-58.93 40.65,-108.35 95.44,-121.78l-65.71 -18.9 0 -31.65 -32.91 -41.29 314.99 0 0 -0.02 23.05 0 127.91 0 23.05 0 0 0.02 314.99 0 -32.91 41.29 0 31.65 -65.71 18.9c54.79,13.43 95.44,62.85 95.44,121.78 0,69.25 -56.14,125.39 -125.39,125.39 -61.37,0 -112.43,-44.08 -123.26,-102.31l-0.34 0 0 72.64c4.65,6.85 7.35,15.02 7.35,23.8 0,14.5 -7.38,27.35 -18.73,35.31l84.4 0c25.3,0 46,20.7 46,46 0,25.3 -20.7,46 -46,46l0 0.68 41.76 0c25.3,0 46,20.7 46,46 0,25.3 -20.73,46 -46,46l-14.23 0c37.24,1630.46 39.37,3253.4 0,4867.47l10.88 0c25.72,0 46.76,21.04 46.76,46.77l0 0.01c0,25.51 -20.71,46.42 -46.16,46.75l69.42 0 0 101.9 -251.75 0 -159.05 0 -251.75 0 0 -101.9z"/>
   </clipPath>
   <clipPath id="id7">
    <path d="M2268.52 13904.55l0 -482.96 -53.59 0 53.59 -61.82 0 -1485.4 -53.59 -51.82c2173.83,0.04 4347.66,0.04 6521.49,0l-53.59 51.82 0 1485.4 53.59 61.82 -53.59 0 0 482.96c-2138.1,0 -4276.21,0 -6414.31,0z"/>
   </clipPath>
 </defs>
 <g id="Слой_x0020_1">
  <metadata id="CorelCorpID_0Corel-Layer"/>
  <path class="fil0" d="M527.22 3132.31c3287.4,0 6574.8,0 9862.2,0 0,891.14 0,9409.09 0,10300.23 0,824.57 -636.76,1518.75 -1740.94,1518.75 -718.83,0 -1163.64,0 -1882.48,0 -198.31,0 -653.72,4.2 -970.53,196.73 -171.72,104.36 -337.15,373.93 -337.15,503.62 0,-129.69 -165.43,-399.26 -337.15,-503.62 -316.81,-192.53 -772.22,-196.73 -970.53,-196.73 -718.84,0 -1163.65,0 -1882.48,0 -1104.18,0 -1740.94,-694.18 -1740.94,-1518.75 0,-891.14 0,-9409.09 0,-10300.23z"/>
  <path class="fil1" d="M2594.41 2084.4c-0.09,175.84 -7.33,337.81 -24.98,509.92l235.57 -0.23c0.87,-18.21 -2.46,-42.56 -3.83,-61.4 -2.47,-34.2 -2.5,-29.61 12.84,-51.73 18.75,-27.04 36.36,-53.44 54.56,-79.51 18,-25.76 36.03,-52.28 53.79,-77.83 18.48,-26.62 36.94,-51.14 55.07,-78.93 57.62,-88.4 149.94,-199.04 209.31,-286.31 2.31,-3.38 4.25,-6.46 6.67,-9.87l9.03 -10.81c-0.17,119.69 1.95,329.93 -5.54,430.86 -2.74,36.94 -4.2,75.54 -5.76,112.87 -1.61,38.47 -6.76,74.83 -9.12,112.1 74.68,2.67 168.71,0.45 246.57,1.09 -5,-80.87 -15.07,-162.22 -18.44,-244.6 -9.25,-226.06 -5,-426.77 6.7,-652.83 2.08,-40.23 7.2,-79.06 9.1,-118.52l-237.12 0.53c1.32,19.88 2.97,40.84 3.6,60.96 1.13,35.62 4.39,31.52 -11.49,53.83l-52.49 79.21c-17.95,26.54 -36.38,50.54 -53.79,77.65 -8.35,13 -17.21,25.88 -26.92,38.93 -9.51,12.77 -18.74,26.99 -28.02,40.07 -55.65,78.48 -107.44,152.95 -166.21,231.03 -5.29,7.02 -9.67,11.44 -14.66,18.24l-43.6 58.47c4.44,-110.01 3.65,-223.72 4.68,-334.13 1.06,-111.4 7.74,-214.66 14.33,-324.16l-241.75 -0.51c0.32,46.2 11.72,195.14 16.1,247.04 4.34,51.35 5.82,201.9 5.8,258.57zm7538.37 -1571.48c0,0 -23.11,31.7 -52.67,51.56 18.49,18.39 57.95,61.01 119.2,61.01 45.35,0 102.63,-13.92 132.1,-111.3 -13.55,-2.39 -22.48,-4.9 -35.02,-10.5 0,0 -18.54,60.79 -81.93,60.79 -54.8,0 -80.88,-48.35 -81.68,-51.56zm-2049.89 0c0,0 -23.11,31.7 -52.67,51.56 18.49,18.39 57.95,61.01 119.2,61.01 45.35,0 102.63,-13.92 132.1,-111.3 -13.55,-2.39 -22.48,-4.9 -35.02,-10.5 0,0 -18.54,60.79 -81.93,60.79 -54.8,0 -80.88,-48.35 -81.68,-51.56zm-2847.76 546.23l207.18 0.79 0.07 -92.2 -206.6 -0.09 -0.65 91.5zm-1072.03 24.91c-11.98,6.17 -22.79,13.85 -37.57,19.94 -14.77,6.1 -28.12,11.3 -45.33,15.9 -36.22,9.69 -74.19,8.86 -107.34,-3.47 -32.46,-12.06 -47.53,-28.65 -62.53,-57.21 -14.6,-27.75 -21.17,-62.51 -21.71,-100.41 -1.14,-77.64 25.2,-140.82 73.28,-168.66 44.24,-25.6 98.79,-26.41 149.86,-12.32 18.13,4.99 29.49,11.66 45.64,16.88l-17.93 -110.27 -13.73 -2.76c-42.12,-10.32 -106.44,-9.82 -146.71,-1.27 -93.92,19.94 -164.53,84.93 -191.9,174.6 -17.25,56.49 -16.2,100.16 -11.5,162.56 3.48,46.29 31.35,101.65 52.92,128.22 61.75,76.12 183.15,90.81 275.73,61.55 12.22,-3.86 21.28,-8.08 31.4,-13.17 15.94,-8.02 17.86,-7.01 18.88,-28.63 0.97,-20.98 10.53,-64.99 8.54,-81.48zm2704.73 1.24c-6.12,0.82 -30.43,15.61 -39.12,19.71 -45.56,21.49 -105.96,30.34 -152.69,10.78 -130.25,-54.5 -117.62,-365.27 90.97,-346.94 58.6,5.14 82.61,24.26 95.8,25.24l-16.62 -109.39c-151.21,-30.8 -251.15,2.81 -325.06,108.02 -39.39,56.07 -52.76,155.84 -40.53,224.7 13.69,77.05 40.2,130.35 102.62,170 18.18,11.55 41.04,20.99 65.28,26.31 63.91,14.02 133.12,8.56 191.25,-18.02 16.64,-7.61 15.95,-7.86 19.59,-27.27 3.84,-20.39 8.16,-61.85 8.51,-83.14zm437.4 -0.13c-14.52,4.08 -27.6,13.24 -40.14,19.13 -15.02,7.07 -28.33,11.56 -45.11,15.95 -36.16,9.48 -74.6,8.12 -107.23,-4.17 -31.88,-11.98 -46.82,-29 -62,-57.84 -41.56,-79.09 -26.28,-223.73 51.17,-267.52 24.15,-13.68 64.33,-25.17 99.92,-21.77 63.7,6.07 76.13,22.32 95.81,25.13l-13.53 -108.78c-120.52,-24.15 -214.48,-9.73 -285.56,56.11 -80.46,74.53 -91.07,167.1 -81.85,273.84 15.17,175.72 181.88,237.08 326.87,192.1 31.82,-9.87 50.36,-15.28 52.22,-39.32 2.24,-28.92 7.45,-55.83 9.43,-82.86zm1556.05 0.1c-23.12,6.28 -104.88,66.64 -192.62,30.58 -61.96,-25.47 -81.6,-90.56 -84.61,-156.97 -2.68,-59.29 22.44,-134.79 73.8,-167.87 40.3,-25.95 103.28,-26.99 151.48,-13.29 15.98,4.56 31.42,13.88 45.13,16.8 -1.18,-26.6 -7.16,-61.47 -10.37,-89.42 -2.81,-24.48 -1.78,-18.68 -24.71,-24.39 -65.62,-16.31 -155.08,-4.36 -211.15,22.96 -36.86,17.96 -78.3,60.95 -100.35,97.11 -52.02,85.3 -52.87,231.48 -1.09,317.11 15.91,26.26 15.35,23.51 32.42,40.43 24.69,24.48 35.82,33.61 75.96,48.57 63.66,23.74 143.32,16.67 208.55,-7.92 35.43,-13.36 27.37,-24.19 31.59,-66.81 1.63,-16.54 5.02,-31.42 5.97,-46.89zm-5133.55 -0.94c-50.94,27.14 -115.45,59.5 -189.8,32.47 -89.78,-32.64 -103.76,-177.7 -67.37,-258.71 13.47,-29.99 28.51,-50.93 55.19,-67.02 48.43,-29.18 122.07,-27.6 174.36,-5.64 10.38,4.35 10.76,6.38 22.34,8.93 -0.57,-13.11 -11.9,-100.61 -15.05,-108.14 -28.46,-15.42 -128.18,-13.62 -163.1,-5.83 -58.92,13.16 -86.64,29.66 -121.29,61.91l-22.01 22.54c-19.58,21.51 -40.68,61.02 -49.29,89.51 -42.51,140.59 -4.42,324.75 156.99,359.73 61.06,13.24 137.36,8.34 192.07,-19.95 18.89,-9.75 16.11,-2.81 19.48,-27.49 1.34,-9.86 8.08,-77.8 7.48,-82.31zm-694.5 -15.09c-5.69,24.03 -37.35,48.2 -60.32,57.22 -15.6,6.12 -31.16,8.07 -50.17,8.1 -39.93,0.06 -32.72,-4.53 -50.78,-8.06 8.3,27.3 12.26,73.5 24.16,96.57 30.34,8.56 80.55,3.17 108.87,-5.83 87.64,-27.8 133.02,-120.63 166.97,-199.53l75.58 -168.92c13.27,-30.04 25.33,-56.5 38.22,-84.1l38.43 -83 -112.51 0.74c-19.28,-0.45 -13.13,-0.28 -24.26,40.48 -10.74,39.29 -23.34,80.14 -37.73,117.39l-57 146.11 -54.06 -148.15c-9.2,-25.13 -17.97,-49.66 -26.59,-74.44 -10.12,-29.13 -16.42,-80.22 -28.32,-81.29 -2.19,-0.2 -6.71,0.09 -9.21,0.12 -30.98,0.41 -107.19,1.85 -129.01,-3.01 1.96,9.72 7.39,13.31 12.63,21.78 4.49,7.26 8.67,14.84 12.87,22.46l73.49 145.1 88.74 200.26zm-2072.81 143.74l302.37 0.02 16.99 -96.01c-47.32,6.32 -33.93,7.06 -91.15,10.13 -31.27,1.67 -69.53,3.74 -100.39,2.47l-0.68 -158.71 171.71 7.32 16.46 -88.14 -186.86 -0.58c-4.23,-13.88 -1.18,-101.7 -1.52,-123.68 32.61,-0.57 66.17,-0.03 98.83,0.38 32.84,0.39 58.38,6.73 88.66,8.65 1.94,-14.81 -7.55,-70.47 -9.65,-90.39 -13.28,-3.77 -274.15,-4.03 -301.49,-1.94 -3.09,25.28 4.42,101.06 7.44,129.3 9.98,93.33 0.17,312.86 -10.72,401.18zm1622.91 -277.04c-5.53,-24.89 0.67,-135.3 1.16,-169.8 76.18,-7.13 134.63,7.83 133.03,87 -0.38,19.65 -3.88,29.31 -11.3,44.13 -20.28,40.43 -103.49,46.83 -122.89,38.67zm-125.45 276.55l135.66 0.96c-2.23,-31.73 -5.68,-62.47 -6.51,-94.7 -0.79,-30.79 -5.61,-69.83 -4.73,-98.45 66.35,2.75 136.41,-11.18 187.57,-49.98 53.97,-40.93 70.17,-106.7 54.84,-171.95 -15.71,-66.81 -62.15,-98.78 -127.44,-110.05 -35.86,-6.19 -195.4,-7.82 -235.1,-5.54 -4.95,13.53 3.54,107.4 5.49,129.62 7.44,85.19 4,318.08 -9.78,400.09zm3189.65 -445.11c26.83,-8 79.97,1.09 98.87,11.43 37.74,20.61 46.99,77.99 23.99,118.58 -22.59,39.83 -79.6,41.4 -124.82,40.14l1.96 -170.15zm-126.61 445.89l135.46 0.44 -10.98 -191.3c13.42,-5.34 39.38,-2.74 54.94,-4.63 15.87,-1.92 35.03,-4.63 50.76,-8.26 101.81,-23.46 163.11,-106.3 137.64,-213.21 -7.58,-31.74 -26.75,-56.55 -45.15,-72.59 -69.72,-60.82 -216.84,-37.17 -320.2,-41.66 3.79,89.26 12.59,177.25 12.33,267.34 -0.26,89.07 -5.74,176.94 -14.8,263.87zm-4904.67 -84.02l-0.8 -163.08c32.34,-3.33 82.97,-0.41 109.06,10.23 30.13,12.32 47.35,30.11 48.01,71.67 0.64,39.37 -19.04,60.53 -48.74,71.09 -21.84,7.75 -82.62,16.21 -107.53,10.09zm-119.49 84.18c23.63,3.59 90.03,-0.29 118.4,-0.68 91.27,-1.25 226.3,-8.97 261.67,-109.78 22.94,-65.36 8.8,-140.28 -51.04,-178.59 -51.91,-33.26 -138.83,-33.91 -210.63,-35.99l0.11 -122.76c33.27,-0.04 67.38,-0.03 100.94,0.61 33,0.63 62.21,6.38 94.04,9.54l-16.39 -92.71 -296.34 -0.48c1.15,89.81 9.71,175.49 9.58,266.81 -0.07,45.42 -0.42,91.04 -2.84,136.37 -1.85,34.22 -10.48,96.99 -7.5,127.66zm8559.57 -284.97c-2.35,-51.98 13.99,-225.04 8.29,-245.95l-130.91 -0.21c-2.67,33.62 6.09,90.79 7.2,128.47 1.31,45.3 3.27,90.68 3.39,136.28 0.14,45.1 -0.86,91.44 -2.9,136.28 -2.05,45.19 -6.49,85.63 -10.23,129.59l135.46 0.6c-2.95,-43.19 -4.02,-86.81 -6.73,-130.28 -2.27,-36.17 -5.71,-93.15 -3.3,-128.21 12.03,14.28 28.56,25.5 50.86,53.21 14.57,18.1 32.15,42.45 44.86,63.27 20.97,34.29 39.81,65.71 56.59,103.14 4.51,10.03 10.48,26.77 16.23,37.62 16.07,2.04 145.24,2.79 156.51,-0.2 -6.48,-10.61 -19.28,-21.89 -27.76,-31.92 -55.5,-65.6 -94.27,-141.88 -154.75,-216.62 -6.39,-7.9 -7.75,-7.83 -15.28,-15.09 -8.76,-8.43 -5.16,-8.06 -16.92,-15.76 3,-10.04 35.31,-53.62 43.08,-64.2l123.52 -172.64c5.98,-7.94 9.39,-5.63 10.55,-15.79 -35.49,6.49 -92.54,1.15 -130.89,1.77 -13.16,0.22 -8.52,6.13 -26,39.24 -28.51,54.03 -39.9,74.79 -74.86,127.32l-56.01 80.08zm-4548.9 -246c-4.93,10.18 -9.98,24.78 -14.66,34.74 -5.42,11.54 -11.09,20.64 -17.2,31.85 -11.64,21.37 -23.69,41.78 -36.27,62.53 -12.98,21.34 -26.02,38.42 -39.82,58.84l-40.95 56.87 11.36 -245.28 -133.27 0.47 7.19 130.72c2.33,45.26 4.43,88 4.39,133.85 -0.1,92.45 -6.41,176.07 -14.61,266l136.56 0.46 -13.13 -257.1c11.23,3.71 43.82,40.59 54.3,52.85 38.55,45.11 96.32,148.04 116.64,202.98l157.62 0.97c-5.54,-13.62 -20.1,-20.1 -29.57,-32.46 -8.49,-11.07 -18.03,-23 -26.4,-34.8 -28.46,-40.08 -101.97,-156.37 -126.49,-181.43 -6.71,-6.89 -8.85,-10 -14.42,-16.12l-17.71 -15.44c3.78,-16.24 118.47,-171.18 132.11,-190.21 4.28,-5.98 42.6,-56.95 43.24,-62.38 -44.34,3.67 -97.07,-2.22 -138.91,2.09zm-3191.66 433.87c0.97,16.56 -2.51,87.81 9.75,93.05 0.46,0.2 1.22,0.42 1.77,0.62 3.86,1.49 4.3,1.16 8.86,3.15 41,17.79 83.08,12.98 118.23,-14.29 31.44,-24.38 50.84,-64.63 63.15,-115.48 17.16,-70.85 35.59,-242.49 36.89,-317.92l126.68 0.57c1.29,76.13 2.98,152.81 1.49,228.02 -0.99,50.19 -4.14,172.72 -9.37,218.04l134.46 1.33c-15.14,-165.32 -16.76,-302.42 -6.37,-466.16 1.02,-15.92 5.52,-51.95 4.22,-64.66l-356.91 0.15 -3.43 139.72c-3.66,65.04 -14.93,193.62 -36.64,250.62 -27.33,71.76 -64.55,42.13 -92.78,43.24zm4845.56 -350.97c109.05,-13.21 139.26,72.07 143.16,162.88 2.03,47.42 -3.31,98.26 -19.58,135.89 -8.28,19.15 -20.61,32.98 -33.52,44.08 -31.3,26.88 -82.4,28.97 -121.1,15.1 -55.96,-20.05 -74.41,-93.5 -77.32,-154.99 -2.29,-48.25 3.95,-96.85 19.18,-135.81 16.14,-41.36 43.83,-61.67 89.18,-67.15zm-4.82 -94.06c-77.1,10.32 -119.82,27.81 -168.66,90.99 -37.27,48.22 -54.99,126.66 -50.8,206.42 2.12,40.54 8.54,73.92 21.17,108.12 37.25,100.86 134.68,158.37 244.54,146.79 68.55,-7.23 128.79,-37.28 167.67,-90.54 56.97,-78.05 66.89,-218.23 28.92,-316.45 -21.38,-55.33 -72.2,-111.85 -129.55,-131.25 -33.21,-11.23 -75.49,-19.14 -113.29,-14.08zm-4038.15 93.44c42.92,-4.13 87.64,8.14 109.48,45.27 39.52,67.16 42.03,184.35 9.35,255.05 -30.09,65.13 -98.49,80.95 -156.73,56.86 -89.29,-36.92 -83.85,-218.81 -52.69,-292.01 16.15,-37.96 38.32,-60.15 90.59,-65.17zm-6.83 -93.86c-75.35,9.18 -123.44,30.1 -168.81,90.56 -38.58,51.42 -56.93,125.01 -53.82,206.82 2.06,54.37 17.97,107.21 44.03,150.86 10.25,17.16 18.6,22.7 29.24,36.56 82.39,107.51 424.7,127.72 413.45,-229.78 -1.1,-34.83 -11.38,-79.83 -21.61,-108.01 -20,-55.03 -72.45,-111.3 -128.85,-131.99 -28.68,-10.51 -78.85,-19.26 -113.63,-15.02zm2703.73 294.97c-2.45,-45.59 4.94,-98.62 19.93,-134.29 16.02,-38.08 38.28,-61.16 88.09,-66.62 109.84,-12.04 139.77,74.23 142.44,165.66 1.39,47.84 -3.27,96.17 -20.39,134.56 -17.33,38.87 -39.98,57.57 -89.35,65.87 -20.86,3.5 -47.62,-1.08 -65.48,-8.61 -20.67,-8.73 -31.15,-18.93 -42.42,-35.21 -21.51,-31.09 -30.33,-74.88 -32.82,-121.36zm106.44 -295.16c-93.14,9.61 -127.06,38.65 -169.4,89.78 -60.56,73.1 -69.21,227.76 -32.87,316.87 40.98,100.49 130.78,156.29 242.99,146.5 154.92,-13.52 231.54,-144.28 221.29,-297.95 -5.42,-81.25 -29.04,-144.52 -72.43,-186.41 -5.78,-5.58 -9.34,-9.51 -14.92,-15.57 -13.01,-14.18 -43.23,-30.32 -61.51,-37.3 -29.71,-11.33 -77.09,-19.65 -113.15,-15.92zm4500.79 542.57l126.24 0.15 -3.84 -52.57c9.95,-8.72 130.65,-185.76 153.66,-214.97 8.47,-10.76 17.63,-24.11 25.88,-35.33 19.27,-26.22 17.32,-27.44 27.88,-37.59 -0.1,111.56 -1.38,228.93 -9.71,339.26l130.52 1.33c-9.84,-121 -15.32,-279.47 -9.92,-402.84 1.59,-36 10.02,-95.79 7.14,-128.16l-124.68 -0.08c-6.6,61.26 21.19,24.36 -31.18,100.7l-84.95 121.86c-28.4,38.33 -58.72,75.59 -83.17,116.53 -3.15,5.28 -1.52,2.69 -4.63,5.35l8.71 -344.33 -126.41 -0.43c0.75,42.72 6.43,85.27 8.71,128.71 3.57,67.89 3.67,206.63 0.32,274.55 -2.14,43.02 -9.74,86.15 -10.57,127.86zm-1487.8 -0.33l127.05 0.28 -4.89 -50.31c12.93,-10.98 130.63,-185.51 155.61,-218.07 17.48,-22.77 38.26,-47.55 53.37,-72.53l-2.08 171.09c-0.74,57.52 -6.11,112.69 -8.26,169.48l131.16 0.72c-7.59,-93.94 -13.95,-167.7 -13.26,-264.19 0.67,-91.45 6.2,-177.65 10.88,-267.65l-126.71 0.6c-0.97,17.78 9.56,44.68 0.07,58.57l-85.15 121.54c-18.37,27.11 -38.24,52.91 -56.95,79.41l-59.49 81.71c2.39,-58.25 0.94,-116.91 1.87,-175.23 0.45,-27.15 0.48,-56.52 2.54,-83.49 1.65,-21.76 6.98,-62.98 5.21,-82.33l-128.78 0.03 7.59 128.21c5.88,142.01 8.34,257.63 -9.78,402.16zm-545.74 -268.23l-0.01 4.7c-0.16,88.32 -3.53,178.36 -14.77,263.13l126.4 0.85c-2.58,-64.5 -12.36,-35.75 32.28,-99.92l171.77 -242.19 0.08 118.08c-0.01,74.68 -5.51,149 -9.23,223.43l131.41 0.58c-13.61,-92.09 -17,-302.31 -9.87,-409.57 1.71,-25.9 8.65,-100.11 4.84,-121.44l-124.13 -0.02c-4.06,15.49 6.14,44.4 -0.87,56.99l-202.5 286.66c-0.3,-25.41 2.72,-56.6 3.12,-83.63l2.87 -176.24c0.33,-19.33 6.2,-69.78 3.84,-83.55l-128.43 -0.71c1.06,40.89 8.52,82.97 9.36,126.56 0.89,45.16 3.93,90.86 3.84,136.29zm2592.85 268.78l126.53 -0.4c-3.22,-62.11 -9.62,-37.84 23.26,-85.74l182.64 -253.92c-3.99,56.09 -0.25,116.18 -2.71,173.37 -2.38,55.83 -5.66,110.4 -8.42,166.11 26.43,0.04 103.92,3.81 124.38,-0.86 0.23,-133.24 -10.24,-256.42 -4.63,-396.53 0.98,-24.64 7.4,-115.56 2.27,-132.88l-119.84 -0.31c-4.22,17.54 8.14,42.04 -1.1,58.36 -3.53,6.22 -9.89,14.68 -14.19,21.2 -4.74,7.15 -9.77,13.68 -14.62,20.47 -39.41,55.32 -72.85,106.35 -114.84,162.54 -10.13,13.57 -19.61,27.18 -29.42,41.11l-28.77 40.68 5.26 -262.86c1.12,-26.62 5.19,-56.97 5.59,-81.82l-129.23 0.35c-1.43,16.63 3.61,44.19 4.7,62.52 8.08,134.42 9.48,269.96 -0.09,404.37 -1.54,21.61 -5.33,42.81 -6.77,64.24zm-349.77 550.32c28.57,-11.52 173.03,-28.89 213.48,-29.65l72.8 -1.75c4.99,0.9 2.62,0.7 5.26,2.36l4.97 218.05c1.66,73.29 1.25,145.24 -0.52,218.54 -1.73,71.41 -2.84,145.12 -6.83,216.11 -3.9,69.05 -12.36,138.27 -16.25,206.23l256.67 0.76c-2.34,-32.21 -8.24,-67.46 -10.46,-98.74 -2.49,-34.95 -3.63,-69.03 -6.5,-104.08 -8.02,-97.57 -9.35,-333.76 -8.85,-438.82 0.2,-41.79 1.36,-185.21 4.78,-218.73 21.34,-9.53 193.14,11.09 219.11,15.01l68.56 11.63c-2.28,-31.42 -3.8,-61.56 -6.48,-92.36 -2.65,-30.76 -7.99,-61.05 -9.56,-89.83 -60.74,2.57 -126.95,-0.17 -188.36,-0.09 -43.97,0.05 -552.09,-2.65 -569.95,1.75l-21.87 183.61zm-1613.3 -0.04c62.48,-10.98 70.19,-15.2 141.35,-23.06 51.16,-5.66 100.01,-8.77 152.21,-7.68 4.28,17.34 3.88,186.46 4.22,217.78 2.51,224.17 -2.4,419.64 -24.05,643.14l257.83 0.56c-1.71,-32.11 -8.17,-65.53 -10.46,-98.9 -16.18,-236.86 -16.37,-417.8 -14.72,-653.24 0.17,-24.29 -0.48,-88.62 3.53,-108.29l7.84 -2.07c45.12,-2.86 171.33,10.73 215.04,17.57 24.41,3.83 47.08,9.57 70.05,12.85l-21.01 -182.56 -757.62 -1.36 -24.21 185.26zm-1117.08 585.57c-5.82,2.76 -45.13,29.15 -74.03,42.22 -226.12,102.14 -453.17,25.36 -454.8,-281.31 -0.84,-153.6 45.7,-269.83 141.56,-325.63 97.39,-56.66 229.52,-53.34 333.6,-11.31 15.31,6.17 27.86,13.11 42.37,17.52 -7.79,-53.87 -13.27,-110.32 -21.48,-165.35 -7.04,-47.11 4.11,-41.24 -44.73,-49.36 -159.4,-26.51 -340.2,-10.9 -461.28,80.48 -143.74,108.48 -207.09,257.92 -208.07,451.29 -0.64,122.77 22.95,220.63 71.53,305.96 42.21,74.12 124.68,141.83 206.44,169.38 125.08,42.16 316.14,35.31 434.66,-31.97 17.34,-9.85 13.15,-8.3 15.38,-31.86 5.2,-55.27 13.83,-114.43 18.85,-170.06zm-6403.02 -769.57c5.26,10.02 11.81,19.1 18.53,29.28 32.32,48.94 92.9,165.02 119.23,219.08 36.52,74.89 88.65,187.21 121.15,264.36 18.96,44.94 40.6,88.03 58.84,133.83 9.4,23.59 18.43,45.24 28.21,68.08 14.12,32.98 16.4,27.7 -8.5,62.67 -26.02,36.53 -57.51,65.91 -111.04,81.63 -64.34,18.88 -114.26,8.63 -173.36,-0.69 3.11,21.71 34.67,166.09 41.47,175.97 62.95,14.98 149.38,6.49 207,-10.85 66.4,-19.96 106.1,-47.6 143.6,-89.11 5.2,-5.75 10.53,-8.96 15.83,-14.64 4.86,-5.18 8.39,-10 12.97,-15.43 101.86,-120.54 185.67,-362.04 255.61,-505.45 19.51,-40.03 51.05,-116.6 71.12,-161.56 11.35,-25.43 25.41,-51.63 36.6,-78.65l55.28 -121.08c6.64,-12.79 13.61,-23.98 17.87,-38.04 -50.6,-3.1 -150.78,-0.04 -211.11,-0.35 -12.82,-0.06 -19.42,-1.32 -26.86,2.31 -3.07,12.02 -4.54,28.3 -7.89,40.93l-31.27 114.35c-14.66,48.16 -31.49,99.46 -49.24,145.84 -12.62,32.98 -104.13,263.76 -107.14,280.63l-5.9 -10.07c-20.6,-46.07 -34.28,-83.18 -52.57,-130.65 -18.54,-48.1 -36.41,-94.4 -54.47,-142.86 -24.55,-65.88 -52.41,-153.21 -73.43,-222.68 -7.57,-25.04 -12.75,-50.56 -20.11,-75.77l-3.7 -1.34c-4.58,-0.95 0.28,-0.2 -4.34,-0.66l-58.9 -0.21c-43.07,-0.15 -178.22,-2.86 -203.48,1.13zm4072.28 1013.72l572.63 0.98c6.44,-28.28 12.55,-58.39 17.71,-88.12l16.99 -90.31c-53.34,15.19 -320.28,32.92 -372.55,22.61l0.11 -305.19c20.57,-7.01 241.58,4.61 292.97,9.3 13,1.2 28.89,5.25 39.91,5.28l30.52 -167.78c-34.98,2.15 -350.53,2.82 -361.97,-1.25 -1.15,-2.5 -0.77,2.69 -1.72,-5.13l0.06 -23.42c0.08,-10.18 0.02,-20.36 0,-30.56 -0.02,-20.36 0.01,-40.71 -0.03,-61.08 -0.08,-41.18 -0.39,-82.85 0.29,-123.96 16.65,-5.2 164.95,-1.89 191.28,0.05 29.34,2.15 59.85,4.02 88.75,7.69 27.44,3.47 59.88,9.48 84.6,11.72l-20.02 -175.2 -577.65 -0.53c1.43,82.32 13.8,167.23 15.87,249.67 2.19,86.71 7.42,170.83 7.33,258.5 -0.14,134.7 -7.29,253.6 -14.18,385.39 -2.1,40.23 -9.44,82.6 -10.9,121.34zm4368.99 0.84c63.44,-0.06 559.65,4.81 574.67,-2.01 4.14,-4.07 22.76,-111.41 25.4,-129.63 2.21,-15.38 7.8,-32.89 8.29,-46.83 -49.92,13.53 -120.77,14.69 -176.65,20 -62.7,5.95 -130.74,3.58 -194.62,3.98l0.66 -307.92c56.21,2.81 113.51,0.66 169.61,3.64 27.74,1.48 54.9,3.48 82.24,4.9 29.25,1.51 54.03,5.79 80.29,7.65 5.95,-26.51 10.15,-55.99 14.87,-83.75 3.95,-23.46 9.6,-63.59 16.68,-82.51l-362.8 -1.45c-3.55,-14.86 -0.79,-213.37 -1.11,-247.18 100.52,4.61 164.46,-5.4 279.21,9.38 26.82,3.45 59.78,9.17 85.54,10.69l-20.58 -172.48c-14.81,-5.78 -521.31,-3.4 -578.96,-1.7 27.85,329.33 38.58,688.5 -2.74,1015.22zm-3345.45 -648.56c0.1,-45.44 0.22,-90.97 1.4,-136.23 1.58,-61.17 -7.09,-74.01 12.63,-75.1 73.4,-4.03 156.64,0.77 206.69,44.78 32.04,28.15 51.77,91.55 42.21,152.07 -20.59,130.46 -151.17,145.47 -262.94,139.13l0.01 -124.65zm-235.78 648.56l253.75 0.26c-2.08,-61.85 -9.21,-122.29 -10.37,-183.56l-8.44 -185.98c68.76,-1.68 144.62,-5.4 206.47,-22.09 60.06,-16.21 113.17,-39.02 155.21,-72.67 5.27,-4.24 10.93,-7.94 15.68,-12.61 35.67,-35.06 63.36,-69.43 80.18,-119.57 38.46,-114.62 18.19,-263.65 -79.51,-342.62 -96.7,-78.15 -252.47,-74.59 -379.42,-76.37 -75.14,-1.04 -155.94,-2.75 -230.69,0.05 7.83,82.76 10.21,165.83 16.13,249.03 9.56,134.34 11.28,383.8 1.25,517.28 -6.35,84.7 -7.89,166.04 -20.24,248.85zm-3865.38 0.38l252.65 -0.2c-3.08,-115.4 -12.04,-225.42 -13.99,-343.27 -0.62,-37.65 -2.59,-82.77 -0.81,-119.69l385.57 1.01 -10.02 349.04c-1.72,37.22 -5.9,76.12 -6.7,112.73l252.5 0.22c-0.94,-41.11 -8.4,-81.62 -9.98,-122.41 -1.62,-41.75 -6.63,-82.5 -8.32,-124.53 -6.66,-164.72 -7.74,-354.84 -0.34,-519.41 1.83,-40.67 4.2,-82.63 7.54,-123.29 1.69,-20.63 1.93,-41.55 3.38,-62.39 1.46,-20.98 5.27,-42.47 5.78,-63.65l-251.25 -0.18c7.39,100.3 14.23,195.92 15.34,296.57 0.35,31.52 -1.07,71.74 2.01,101.63 -32.88,2.43 -242.76,0.7 -291.3,0.41 -22.09,-0.13 -80.29,2.45 -97.98,-1.7 4.81,-35.57 3.54,-151.06 6.8,-201.44l14.25 -195.48 -252.72 -0.06 16.13 247.62c7.48,81.13 6.01,178.09 6.06,260.52 0.07,87.57 -2.53,173.65 -5.13,260.84 -2.44,81.28 -12.12,166.54 -19.47,247.11zm2388.4 -155.63l-0.48 -314.01c75.28,-6.55 230.13,1.72 277.56,69.84 17.36,24.95 27.68,49.5 28.54,89.21 0.79,36.43 -7.92,61.8 -26.76,88.71 -48.91,69.79 -205.4,77.31 -278.86,66.25zm4.91 -707.71c14.91,-3.45 77.59,-4.82 95.3,-3.07 79.23,7.84 178.22,23.44 169.47,132.78 -5.1,63.85 -38.38,94.12 -90.18,111.67 -56.06,18.99 -114.35,21.69 -179.09,19.32 -4.55,-15.14 -0.57,-109.8 -0.39,-133.25l2.33 -122.15c0.9,-5 0.89,-2.75 2.56,-5.3zm-239.27 862.14c24.32,3.47 68.98,0.81 95.53,0.87 32.1,0.08 64.23,0.11 96.33,0.01 101.54,-0.25 260.73,-1 353.13,-34.75 64.1,-23.4 76.95,-35.62 124.96,-70.13 12.62,-9.07 32.84,-36.54 43.96,-52.18 44.04,-61.97 58.34,-161.38 28.79,-231.69 -21.78,-51.86 -47.48,-77.26 -86,-106.68 -37.51,-28.63 -98.96,-46.14 -147.6,-48.19 8.91,-3.53 21.49,-6.56 31.53,-10.04 63.69,-22.03 136.36,-79.14 158.82,-144.43 16.69,-48.51 18.41,-97.63 2.1,-147.71 -14.98,-45.97 -43.77,-75.19 -73.79,-100.2 -68.65,-57.24 -167.88,-65.95 -278.45,-68.72 -60.49,-1.51 -298.35,-4.07 -347.3,-0.38 14.68,135.73 24.54,369.23 24.9,507.47 0.2,79.05 -9.19,425.82 -26.91,506.75zm3396.19 0.82l234.79 0.05c1.27,-17.26 -1.57,-44.52 -2.79,-61.83 -2.65,-37.58 -3.85,-28.18 12.57,-51.82 90.96,-130.88 179.26,-265.46 275.97,-391.31 18.89,-24.59 38.11,-51.47 56.56,-77.47 9.48,-13.38 18.23,-24.45 28.22,-37.55l26.86 -39.86c1.72,217.86 -0.02,444.68 -18.78,659.85l246.55 0.21c-3.4,-40.78 -7.28,-81.65 -11.22,-122.52 -3.92,-40.72 -4.17,-82.07 -7.63,-123.19 -7.02,-83.42 -5.33,-175.37 -5.46,-259.79 -0.23,-142.31 3.44,-246.28 11.09,-385.38 2.27,-41.28 7.71,-82.57 9.03,-124.28l-236.83 -0.78c0.64,21.47 2.06,42.43 2.53,63.98 0.23,10.4 2.26,21.73 2.19,30.54 -0.11,12.83 -5.48,13.43 -11.53,21.29l-54.43 79.65c-53.35,81.25 -157.53,230.22 -218.83,312.23 -4.99,6.68 -9.55,11 -14.68,18.1l-98.88 133.91c-2.03,-18.33 1.12,-59.48 1.27,-81.12l2.1 -251.42c0.96,-55.15 3.88,-109.63 5.14,-164.5 1.28,-55.29 8.17,-108.49 9.96,-162.26l-241.6 -0.37c2.42,82.27 12.02,166.48 15.75,249.66 9.28,206.65 11.45,435.44 -6.73,641.91 -3.64,41.36 -8.48,83.26 -11.19,124.07z"/>
  <polygon class="fil2" points="2304.44,4251.07 2365.63,4304.48 2365.63,4762.19 2208.42,4767.49 2269.61,4820.9 2269.61,5312.49 1909.96,5314.16 1978,5570.77 2020.33,5624.18 2020.33,5752.86 2264.19,5752.86 2264.19,5979.29 2292.64,5979.29 2292.64,6206.09 8650.77,6206.09 8650.77,5979.29 8679.22,5979.29 8679.22,5752.86 8923.08,5752.86 8923.08,5624.18 8965.41,5570.77 9033.45,5314.16 8673.8,5312.49 8673.8,4820.9 8734.99,4767.49 8577.78,4762.19 8577.78,4304.48 8638.97,4251.07 "/>
  <g style="clip-path:url(#id0)">
   <g id="_2135237165136">
    <path id="_1" class="fil3" d="M1826.63 5971.79l7263.39 0 0 15 -7263.39 0 0 -15zm306.99 -1674.92l6649.41 0 0 15 -6649.41 0 0 -15zm0 458.12l6649.41 0 0 15 -6649.41 0 0 -15zm0 62.83l6649.41 0 0 15 -6649.41 0 0 -15zm0 486.79l6649.41 0 0 15 -6649.41 0 0 -15zm-306.99 254.01l7263.39 0 0 15 -7263.39 0 0 -15zm0 58.83l7263.39 0 0 15 -7263.39 0 0 -15zm0 127.91l7263.39 0 0 15 -7263.39 0 0 -15z"/>
   </g>
  </g>
  <polygon class="fil4" points="2304.44,4251.07 2365.63,4304.48 2365.63,4762.19 2208.42,4767.49 2269.61,4820.9 2269.61,5312.49 1909.96,5314.16 1978,5570.77 2020.33,5624.18 2020.33,5752.86 2264.19,5752.86 2264.19,5979.29 2292.64,5979.29 2292.64,6206.09 8650.77,6206.09 8650.77,5979.29 8679.22,5979.29 8679.22,5752.86 8923.08,5752.86 8923.08,5624.18 8965.41,5570.77 9033.45,5314.16 8673.8,5312.49 8673.8,4820.9 8734.99,4767.49 8577.78,4762.19 8577.78,4304.48 8638.97,4251.07 "/>
  <path class="fil3" d="M2324.4 4258.57l48.73 42.54 0 468.31 -145.51 4.9 49.49 43.21 0 502.4 -357.44 1.66 65.16 245.75 43 54.25 0 123.77 243.86 0 0 226.43 28.45 0 0 226.8 6343.13 0 0 -226.8 28.45 0 0 -226.43 243.86 0 0 -123.77 43 -54.25 65.16 -245.75 -357.44 -1.66 0 -502.4 49.49 -43.21 -145.51 -4.9 0 -468.31 48.73 -42.54 -6294.61 0zm33.73 49.29l-73.65 -64.29 6374.45 0 -73.65 64.29 0 447.11 168.9 5.69 -72.88 63.62 0 480.77 361.86 1.69 -70.92 267.47 -41.66 52.56 0 133.59 -243.86 0 0 226.43 -28.45 0 0 226.8 -6373.13 0 0 -226.8 -28.45 0 0 -226.43 -243.86 0 0 -133.59 -41.66 -52.56 -70.92 -267.47 361.86 -1.69 0 -480.77 -72.88 -63.62 168.9 -5.69 0 -447.11z"/>
  <path class="fil5" d="M3669.9 5623.87c280.19,-232.81 647.38,-333.1 982.32,-337.93 361.94,-5.22 828.5,103.13 834.65,271.64 6.15,168.51 -451.28,310.57 -812.64,331.74 -334.4,19.59 -707.92,-53.67 -1004.33,-265.45z"/>
  <path class="fil6" d="M3805.92 5618.91c255.7,-196.76 590.29,-282.14 895.28,-287.05 329.57,-5.3 754.12,84.78 759.3,226.68 5.17,141.9 -411.68,262.68 -740.77,281.41 -304.53,17.33 -644.45,-43.43 -913.81,-221.04z"/>
  <path class="fil5" d="M4178.58 4281.14c361.47,45.26 685.72,244.62 918.27,485.72 251.3,260.54 491.26,675.07 372.51,794.78 -118.76,119.71 -535.2,-116.93 -797.74,-366.14 -242.95,-230.61 -444.89,-553.26 -493.04,-914.36z"/>
  <path class="fil7" d="M4275.2 4377c318.43,52.04 609.51,237.81 821.63,457 229.22,236.86 453.79,608.25 353.79,709.05 -100,100.8 -473.17,-120.78 -711.86,-348.11 -220.88,-210.36 -408.97,-499.94 -463.56,-817.94z"/>
  <path class="fil5" d="M5467.77 3751.26c-222.44,288.49 -309.28,659.1 -301.89,993.99 7.98,361.89 133.27,824.19 301.89,824.19 168.62,0 293.91,-462.3 301.89,-824.19 7.39,-334.89 -79.45,-705.5 -301.89,-993.99z"/>
  <path class="fil8" d="M5467.77 3887.37c-187.31,262.71 -260.43,600.19 -254.21,905.15 6.72,329.55 112.22,750.53 254.21,750.53 141.99,0 247.49,-420.98 254.21,-750.53 6.22,-304.96 -66.9,-642.44 -254.21,-905.15z"/>
  <path class="fil5" d="M6739.81 4281.14c-361.47,45.26 -685.72,244.62 -918.27,485.72 -251.3,260.54 -491.26,675.07 -372.51,794.78 118.76,119.71 535.2,-116.93 797.74,-366.14 242.95,-230.61 444.89,-553.26 493.04,-914.36z"/>
  <path class="fil9" d="M6643.19 4377c-318.43,52.04 -609.51,237.81 -821.63,457 -229.22,236.86 -453.79,608.25 -353.79,709.05 100,100.8 473.17,-120.78 711.86,-348.11 220.88,-210.36 408.97,-499.94 463.56,-817.94z"/>
  <path class="fil5" d="M7248.49 5623.87c-280.19,-232.81 -647.38,-333.1 -982.32,-337.93 -361.94,-5.22 -828.5,103.13 -834.65,271.64 -6.15,168.51 451.28,310.57 812.64,331.74 334.4,19.59 707.92,-53.67 1004.33,-265.45z"/>
  <path class="fil6" d="M7112.47 5618.91c-255.7,-196.76 -590.29,-282.14 -895.28,-287.05 -329.57,-5.3 -754.12,84.78 -759.3,226.68 -5.17,141.9 411.68,262.68 740.77,281.41 304.53,17.33 644.45,-43.43 913.81,-221.04z"/>
  <path class="fil2" d="M2292.82 11720.24l69.42 0c-25.45,-0.33 -46.16,-21.24 -46.16,-46.75l0 -0.01c0,-25.73 21.04,-46.77 46.76,-46.77l10.88 0c-39.37,-1614.07 -37.24,-3237.01 0,-4867.47l-14.23 0c-25.27,0 -46,-20.7 -46,-46 0,-25.3 20.7,-46 46,-46l41.76 0 0 -0.68c-25.3,0 -46,-20.7 -46,-46 0,-25.3 20.7,-46 46,-46l84.4 0c-11.35,-7.96 -18.73,-20.81 -18.73,-35.31 0,-8.78 2.7,-16.95 7.35,-23.8l0 -72.64 -0.34 0c-10.83,58.23 -61.89,102.31 -123.26,102.31 -69.25,0 -125.39,-56.14 -125.39,-125.39 0,-58.93 40.65,-108.35 95.44,-121.78l-65.71 -18.9 0 -31.65 -32.91 -41.29 314.99 0 0 -0.02 23.05 0 127.91 0 23.05 0 0 0.02 314.99 0 -32.91 41.29 0 31.65 -65.71 18.9c54.79,13.43 95.44,62.85 95.44,121.78 0,69.25 -56.14,125.39 -125.39,125.39 -61.37,0 -112.43,-44.08 -123.26,-102.31l-0.34 0 0 72.64c4.65,6.85 7.35,15.02 7.35,23.8 0,14.5 -7.38,27.35 -18.73,35.31l84.4 0c25.3,0 46,20.7 46,46 0,25.3 -20.7,46 -46,46l0 0.68 41.76 0c25.3,0 46,20.7 46,46 0,25.3 -20.73,46 -46,46l-14.23 0c37.24,1630.46 39.37,3253.4 0,4867.47l10.88 0c25.72,0 46.76,21.04 46.76,46.77l0 0.01c0,25.51 -20.71,46.42 -46.16,46.75l69.42 0 0 101.9 -251.75 0 -159.05 0 -251.75 0 0 -101.9z"/>
  <g style="clip-path:url(#id1)">
   <g id="_2135237158656">
    <path id="_1_0" class="fil3" d="M2292.82 11712.96l662.55 0 0 15 -662.55 0 0 -15zm0 -93.66l662.55 0 0 15 -662.55 0 0 -15zm0 -5051.5l662.55 0 0 15 -662.55 0 0 -15zm0 91.71l662.55 0 0 15 -662.55 0 0 -15zm0 92.02l662.55 0 0 15 -662.55 0 0 -15z"/>
   </g>
  </g>
  <path class="fil4" d="M2292.82 11720.24l69.42 0c-25.45,-0.33 -46.16,-21.24 -46.16,-46.75l0 -0.01c0,-25.73 21.04,-46.77 46.76,-46.77l10.88 0c-39.37,-1614.07 -37.24,-3237.01 0,-4867.47l-14.23 0c-25.27,0 -46,-20.7 -46,-46 0,-25.3 20.7,-46 46,-46l41.76 0 0 -0.68c-25.3,0 -46,-20.7 -46,-46 0,-25.3 20.7,-46 46,-46l84.4 0c-11.35,-7.96 -18.73,-20.81 -18.73,-35.31 0,-8.78 2.7,-16.95 7.35,-23.8l0 -72.64 -0.34 0c-10.83,58.23 -61.89,102.31 -123.26,102.31 -69.25,0 -125.39,-56.14 -125.39,-125.39 0,-58.93 40.65,-108.35 95.44,-121.78l-65.71 -18.9 0 -31.65 -32.91 -41.29 314.99 0 0 -0.02 23.05 0 127.91 0 23.05 0 0 0.02 314.99 0 -32.91 41.29 0 31.65 -65.71 18.9c54.79,13.43 95.44,62.85 95.44,121.78 0,69.25 -56.14,125.39 -125.39,125.39 -61.37,0 -112.43,-44.08 -123.26,-102.31l-0.34 0 0 72.64c4.65,6.85 7.35,15.02 7.35,23.8 0,14.5 -7.38,27.35 -18.73,35.31l84.4 0c25.3,0 46,20.7 46,46 0,25.3 -20.7,46 -46,46l0 0.68 41.76 0c25.3,0 46,20.7 46,46 0,25.3 -20.73,46 -46,46l-14.23 0c37.24,1630.46 39.37,3253.4 0,4867.47l10.88 0c25.72,0 46.76,21.04 46.76,46.77l0 0.01c0,25.51 -20.71,46.42 -46.16,46.75l69.42 0 0 101.9 -251.75 0 -159.05 0 -251.75 0 0 -101.9z"/>
  <path class="fil3" d="M2292.82 11712.74l32.68 0 -1.23 -1.21c-9.68,-9.8 -15.69,-23.26 -15.69,-38.04 0,-14.93 6.11,-28.52 15.93,-38.34 9.83,-9.83 23.41,-15.94 38.33,-15.94l3.22 0c-19.55,-804.47 -28.81,-1611.26 -28.54,-2420.09 0.27,-808.85 10.06,-1619.72 28.56,-2432.38l-6.59 0c-14.7,0 -28.09,-6.03 -37.78,-15.72 -9.69,-9.69 -15.72,-23.07 -15.72,-37.78 0,-14.71 6.02,-28.1 15.71,-37.79 9.69,-9.69 23.08,-15.71 37.79,-15.71l5.44 0 -1.44 -1.39c-9.72,-9.69 -15.74,-23.08 -15.74,-37.79 0,-14.71 6.02,-28.1 15.71,-37.79 9.69,-9.69 23.08,-15.71 37.79,-15.71l66.71 0 -2.74 -4.56c-3.69,-6.98 -5.8,-14.9 -5.8,-23.25 0,-5.04 0.78,-9.95 2.22,-14.62 1.23,-3.97 2.97,-7.78 5.13,-11.32l0 -28.93c-8.04,14.43 -18.68,27.19 -31.29,37.65 -23.03,19.09 -52.62,30.59 -84.81,30.59 -36.69,0 -69.92,-14.89 -93.96,-38.93 -24.05,-24.07 -38.93,-57.31 -38.93,-93.96 0,-30.86 10.56,-59.3 28.24,-81.87 13.15,-16.78 30.27,-30.33 49.94,-39.23l-48.45 -13.93 0 -34.7 -40.96 -51.39 835.1 0 -40.97 51.39 0 34.7 -48.45 13.93c19.67,8.9 36.79,22.45 49.94,39.23 17.68,22.57 28.24,51.01 28.24,81.87 0,36.68 -14.89,69.92 -38.93,93.96 -24.04,24.04 -57.28,38.93 -93.96,38.93 -32.19,0 -61.78,-11.5 -84.8,-30.61 -12.62,-10.44 -23.26,-23.2 -31.3,-37.63l0 28.93c2.16,3.54 3.9,7.35 5.13,11.32 1.44,4.67 2.22,9.58 2.22,14.62 0,8.35 -2.11,16.27 -5.8,23.25l-2.74 4.56 66.71 0c14.71,0 28.1,6.02 37.79,15.71 9.68,9.72 15.71,23.1 15.71,37.79 0,14.69 -6.03,28.07 -15.71,37.76l-1.47 1.42 5.44 0c14.71,0 28.1,6.02 37.79,15.71 9.68,9.72 15.71,23.1 15.71,37.79 0,14.71 -6.03,28.09 -15.72,37.78 -9.69,9.69 -23.08,15.72 -37.78,15.72l-6.59 0c18.5,812.66 28.29,1623.53 28.56,2432.38 0.26,808.83 -9,1615.62 -28.54,2420.09l3.22 0c14.92,0 28.5,6.11 38.33,15.94 9.82,9.82 15.93,23.41 15.93,38.33 0,14.79 -6.01,28.25 -15.69,38.05l-1.23 1.21 40.18 0 0 116.9 -677.55 0 0 -116.9 7.5 0zm68.42 0l1 0 0 15 -61.92 0 0 86.9 647.55 0 0 -86.9 -61.92 0 -0.09 -14.97 1.09 -0.03c10.24,-0.42 19.54,-4.82 26.31,-11.69 7,-7.09 11.35,-16.84 11.35,-27.56 0,-10.8 -4.43,-20.64 -11.53,-27.74 -7.12,-7.12 -16.94,-11.54 -27.73,-11.54l-18.53 0 0.18 -7.68c19.67,-807.02 28.98,-1616.24 28.73,-2427.41 -0.26,-811.18 -10.12,-1624.51 -28.73,-2439.73l-0.17 -7.65 21.87 0c10.57,0 20.21,-4.35 27.18,-11.32 6.97,-6.97 11.32,-16.6 11.32,-27.18 0,-10.59 -4.34,-20.24 -11.3,-27.2 -6.98,-6.96 -16.62,-11.3 -27.2,-11.3l-49.26 0 0 -15.68 7.5 0c10.59,0 20.24,-4.34 27.2,-11.3 6.96,-6.96 11.3,-16.61 11.3,-27.2 0,-10.59 -4.34,-20.24 -11.3,-27.2 -6.98,-6.96 -16.62,-11.3 -27.2,-11.3l-108.1 0 19.39 -13.62c4.81,-3.38 8.8,-7.82 11.5,-12.92 2.57,-4.86 4.04,-10.4 4.04,-16.27 0,-3.59 -0.53,-7.02 -1.52,-10.22 -1.04,-3.37 -2.58,-6.55 -4.51,-9.39l-1.32 -1.94 0 -82.39 14.05 0 1.14 6.15c5.12,27.56 19.89,51.8 40.66,69.03 20.37,16.95 46.62,27.13 75.25,27.13 32.55,0 62.04,-13.21 83.36,-34.53 21.32,-21.32 34.53,-50.81 34.53,-83.36 0,-27.43 -9.35,-52.67 -25.02,-72.67 -16.02,-20.43 -38.67,-35.46 -64.68,-41.84l-27.33 -6.7 87.3 -25.11 0 -28.61 24.86 -31.19 -772.89 0 24.86 31.19 0 28.61 87.31 25.11 -27.34 6.7c-26.01,6.38 -48.66,21.41 -64.68,41.84 -15.67,20 -25.02,45.24 -25.02,72.67 0,32.57 13.19,62.06 34.5,83.36 21.35,21.32 50.83,34.53 83.39,34.53 28.63,0 54.88,-10.18 75.25,-27.1 20.77,-17.26 35.54,-41.5 40.66,-69.06l1.15 -6.15 14.04 0 0 82.39 -1.32 1.94c-1.93,2.84 -3.47,6.02 -4.51,9.39 -0.99,3.2 -1.52,6.63 -1.52,10.22 0,5.87 1.47,11.41 4.04,16.27 2.7,5.1 6.69,9.54 11.5,12.92l19.4 13.62 -108.11 0c-10.58,0 -20.22,4.34 -27.19,11.31 -6.97,6.97 -11.31,16.61 -11.31,27.19 0,10.58 4.34,20.22 11.31,27.19 6.95,6.97 16.6,11.31 27.19,11.31l7.5 0 0 15.68 -49.26 0c-10.58,0 -20.22,4.34 -27.19,11.31 -6.97,6.97 -11.31,16.61 -11.31,27.19 0,10.58 4.35,20.21 11.32,27.18 6.97,6.97 16.61,11.32 27.18,11.32l21.88 0 -0.18 7.65c-18.61,815.22 -28.47,1628.55 -28.73,2439.73 -0.26,811.17 9.05,1620.4 28.73,2427.41l0.19 7.68 -18.54 0c-10.79,0 -20.61,4.42 -27.73,11.54 -7.1,7.1 -11.53,16.94 -11.53,27.73 0,10.73 4.35,20.48 11.35,27.57 6.77,6.87 16.07,11.27 26.31,11.69z"/>
  <path class="fil2" d="M3143.8 11720.24l69.42 0c-25.45,-0.33 -46.16,-21.24 -46.16,-46.75l0 -0.01c0,-25.73 21.04,-46.77 46.76,-46.77l10.88 0c-39.37,-1614.07 -37.24,-3237.01 0,-4867.47l-14.23 0c-25.27,0 -46,-20.7 -46,-46 0,-25.3 20.7,-46 46,-46l41.76 0 0 -0.68c-25.3,0 -46,-20.7 -46,-46 0,-25.3 20.7,-46 46,-46l84.4 0c-11.35,-7.96 -18.73,-20.81 -18.73,-35.31 0,-8.78 2.7,-16.95 7.35,-23.8l0 -72.64 -0.34 0c-10.83,58.23 -61.89,102.31 -123.26,102.31 -69.25,0 -125.39,-56.14 -125.39,-125.39 0,-58.93 40.65,-108.35 95.44,-121.78l-65.71 -18.9 0 -31.65 -32.91 -41.29 314.99 0 0 -0.02 23.05 0 127.91 0 23.05 0 0 0.02 314.99 0 -32.91 41.29 0 31.65 -65.71 18.9c54.79,13.43 95.44,62.85 95.44,121.78 0,69.25 -56.14,125.39 -125.39,125.39 -61.37,0 -112.43,-44.08 -123.26,-102.31l-0.34 0 0 72.64c4.65,6.85 7.35,15.02 7.35,23.8 0,14.5 -7.38,27.35 -18.73,35.31l84.4 0c25.3,0 46,20.7 46,46 0,25.3 -20.7,46 -46,46l0 0.68 41.76 0c25.3,0 46,20.7 46,46 0,25.3 -20.73,46 -46,46l-14.23 0c37.24,1630.46 39.37,3253.4 0,4867.47l10.88 0c25.72,0 46.76,21.04 46.76,46.77l0 0.01c0,25.51 -20.71,46.42 -46.16,46.75l69.42 0 0 101.9 -251.75 0 -159.05 0 -251.75 0 0 -101.9z"/>
  <g style="clip-path:url(#id2)">
   <g id="_2135237158416">
    <path id="_1_1" class="fil3" d="M3143.8 11712.96l662.55 0 0 15 -662.55 0 0 -15zm0 -93.66l662.55 0 0 15 -662.55 0 0 -15zm0 -5051.5l662.55 0 0 15 -662.55 0 0 -15zm0 91.71l662.55 0 0 15 -662.55 0 0 -15zm0 92.02l662.55 0 0 15 -662.55 0 0 -15z"/>
   </g>
  </g>
  <path class="fil4" d="M3143.8 11720.24l69.42 0c-25.45,-0.33 -46.16,-21.24 -46.16,-46.75l0 -0.01c0,-25.73 21.04,-46.77 46.76,-46.77l10.88 0c-39.37,-1614.07 -37.24,-3237.01 0,-4867.47l-14.23 0c-25.27,0 -46,-20.7 -46,-46 0,-25.3 20.7,-46 46,-46l41.76 0 0 -0.68c-25.3,0 -46,-20.7 -46,-46 0,-25.3 20.7,-46 46,-46l84.4 0c-11.35,-7.96 -18.73,-20.81 -18.73,-35.31 0,-8.78 2.7,-16.95 7.35,-23.8l0 -72.64 -0.34 0c-10.83,58.23 -61.89,102.31 -123.26,102.31 -69.25,0 -125.39,-56.14 -125.39,-125.39 0,-58.93 40.65,-108.35 95.44,-121.78l-65.71 -18.9 0 -31.65 -32.91 -41.29 314.99 0 0 -0.02 23.05 0 127.91 0 23.05 0 0 0.02 314.99 0 -32.91 41.29 0 31.65 -65.71 18.9c54.79,13.43 95.44,62.85 95.44,121.78 0,69.25 -56.14,125.39 -125.39,125.39 -61.37,0 -112.43,-44.08 -123.26,-102.31l-0.34 0 0 72.64c4.65,6.85 7.35,15.02 7.35,23.8 0,14.5 -7.38,27.35 -18.73,35.31l84.4 0c25.3,0 46,20.7 46,46 0,25.3 -20.7,46 -46,46l0 0.68 41.76 0c25.3,0 46,20.7 46,46 0,25.3 -20.73,46 -46,46l-14.23 0c37.24,1630.46 39.37,3253.4 0,4867.47l10.88 0c25.72,0 46.76,21.04 46.76,46.77l0 0.01c0,25.51 -20.71,46.42 -46.16,46.75l69.42 0 0 101.9 -251.75 0 -159.05 0 -251.75 0 0 -101.9z"/>
  <path class="fil3" d="M3143.8 11712.74l32.68 0 -1.23 -1.21c-9.68,-9.8 -15.69,-23.26 -15.69,-38.04 0,-14.93 6.11,-28.52 15.93,-38.34 9.83,-9.83 23.41,-15.94 38.33,-15.94l3.22 0c-19.55,-804.47 -28.81,-1611.26 -28.54,-2420.09 0.27,-808.85 10.06,-1619.72 28.56,-2432.38l-6.59 0c-14.7,0 -28.09,-6.03 -37.78,-15.72 -9.69,-9.69 -15.72,-23.07 -15.72,-37.78 0,-14.71 6.02,-28.1 15.71,-37.79 9.69,-9.69 23.08,-15.71 37.79,-15.71l5.44 0 -1.44 -1.39c-9.72,-9.69 -15.74,-23.08 -15.74,-37.79 0,-14.71 6.02,-28.1 15.71,-37.79 9.69,-9.69 23.08,-15.71 37.79,-15.71l66.71 0 -2.74 -4.56c-3.69,-6.98 -5.8,-14.9 -5.8,-23.25 0,-5.04 0.78,-9.95 2.22,-14.62 1.23,-3.97 2.97,-7.78 5.13,-11.32l0 -28.93c-8.04,14.43 -18.68,27.19 -31.29,37.65 -23.03,19.09 -52.62,30.59 -84.81,30.59 -36.69,0 -69.92,-14.89 -93.96,-38.93 -24.05,-24.07 -38.93,-57.31 -38.93,-93.96 0,-30.86 10.56,-59.3 28.24,-81.87 13.15,-16.78 30.27,-30.33 49.94,-39.23l-48.45 -13.93 0 -34.7 -40.96 -51.39 835.1 0 -40.97 51.39 0 34.7 -48.45 13.93c19.67,8.9 36.79,22.45 49.94,39.23 17.68,22.57 28.24,51.01 28.24,81.87 0,36.68 -14.89,69.92 -38.93,93.96 -24.04,24.04 -57.28,38.93 -93.96,38.93 -32.19,0 -61.78,-11.5 -84.8,-30.61 -12.62,-10.44 -23.26,-23.2 -31.3,-37.63l0 28.93c2.16,3.54 3.9,7.35 5.13,11.32 1.44,4.67 2.22,9.58 2.22,14.62 0,8.35 -2.11,16.27 -5.8,23.25l-2.74 4.56 66.71 0c14.71,0 28.1,6.02 37.79,15.71 9.68,9.72 15.71,23.1 15.71,37.79 0,14.69 -6.03,28.07 -15.71,37.76l-1.47 1.42 5.44 0c14.71,0 28.1,6.02 37.79,15.71 9.68,9.72 15.71,23.1 15.71,37.79 0,14.71 -6.03,28.09 -15.72,37.78 -9.69,9.69 -23.08,15.72 -37.78,15.72l-6.59 0c18.5,812.66 28.29,1623.53 28.56,2432.38 0.26,808.83 -9,1615.62 -28.54,2420.09l3.22 0c14.92,0 28.5,6.11 38.33,15.94 9.82,9.82 15.93,23.41 15.93,38.33 0,14.79 -6.01,28.25 -15.69,38.05l-1.23 1.21 40.18 0 0 116.9 -677.55 0 0 -116.9 7.5 0zm68.42 0l1 0 0 15 -61.92 0 0 86.9 647.55 0 0 -86.9 -61.92 0 -0.09 -14.97 1.09 -0.03c10.24,-0.42 19.54,-4.82 26.31,-11.69 7,-7.09 11.35,-16.84 11.35,-27.56 0,-10.8 -4.43,-20.64 -11.53,-27.74 -7.12,-7.12 -16.94,-11.54 -27.73,-11.54l-18.53 0 0.18 -7.68c19.67,-807.02 28.98,-1616.24 28.73,-2427.41 -0.26,-811.18 -10.12,-1624.51 -28.73,-2439.73l-0.17 -7.65 21.87 0c10.57,0 20.21,-4.35 27.18,-11.32 6.97,-6.97 11.32,-16.6 11.32,-27.18 0,-10.59 -4.34,-20.24 -11.3,-27.2 -6.98,-6.96 -16.62,-11.3 -27.2,-11.3l-49.26 0 0 -15.68 7.5 0c10.59,0 20.24,-4.34 27.2,-11.3 6.96,-6.96 11.3,-16.61 11.3,-27.2 0,-10.59 -4.34,-20.24 -11.3,-27.2 -6.98,-6.96 -16.62,-11.3 -27.2,-11.3l-108.1 0 19.39 -13.62c4.81,-3.38 8.8,-7.82 11.5,-12.92 2.57,-4.86 4.04,-10.4 4.04,-16.27 0,-3.59 -0.53,-7.02 -1.52,-10.22 -1.04,-3.37 -2.58,-6.55 -4.51,-9.39l-1.32 -1.94 0 -82.39 14.05 0 1.14 6.15c5.12,27.56 19.89,51.8 40.66,69.03 20.37,16.95 46.62,27.13 75.25,27.13 32.55,0 62.04,-13.21 83.36,-34.53 21.32,-21.32 34.53,-50.81 34.53,-83.36 0,-27.43 -9.35,-52.67 -25.02,-72.67 -16.02,-20.43 -38.67,-35.46 -64.68,-41.84l-27.33 -6.7 87.3 -25.11 0 -28.61 24.86 -31.19 -772.89 0 24.86 31.19 0 28.61 87.31 25.11 -27.34 6.7c-26.01,6.38 -48.66,21.41 -64.68,41.84 -15.67,20 -25.02,45.24 -25.02,72.67 0,32.57 13.19,62.06 34.5,83.36 21.35,21.32 50.83,34.53 83.39,34.53 28.63,0 54.88,-10.18 75.25,-27.1 20.77,-17.26 35.54,-41.5 40.66,-69.06l1.15 -6.15 14.04 0 0 82.39 -1.32 1.94c-1.93,2.84 -3.47,6.02 -4.51,9.39 -0.99,3.2 -1.52,6.63 -1.52,10.22 0,5.87 1.47,11.41 4.04,16.27 2.7,5.1 6.69,9.54 11.5,12.92l19.4 13.62 -108.11 0c-10.58,0 -20.22,4.34 -27.19,11.31 -6.97,6.97 -11.31,16.61 -11.31,27.19 0,10.58 4.34,20.22 11.31,27.19 6.95,6.97 16.6,11.31 27.19,11.31l7.5 0 0 15.68 -49.26 0c-10.58,0 -20.22,4.34 -27.19,11.31 -6.97,6.97 -11.31,16.61 -11.31,27.19 0,10.58 4.35,20.21 11.32,27.18 6.97,6.97 16.61,11.32 27.18,11.32l21.88 0 -0.18 7.65c-18.61,815.22 -28.47,1628.55 -28.73,2439.73 -0.26,811.17 9.05,1620.4 28.73,2427.41l0.19 7.68 -18.54 0c-10.79,0 -20.61,4.42 -27.73,11.54 -7.1,7.1 -11.53,16.94 -11.53,27.73 0,10.73 4.35,20.48 11.35,27.57 6.77,6.87 16.07,11.27 26.31,11.69z"/>
  <path class="fil2" d="M4479.33 11720.24l69.42 0c-25.45,-0.33 -46.16,-21.24 -46.16,-46.75l0 -0.01c0,-25.73 21.04,-46.77 46.76,-46.77l10.88 0c-39.37,-1614.07 -37.24,-3237.01 0,-4867.47l-14.23 0c-25.27,0 -46,-20.7 -46,-46 0,-25.3 20.7,-46 46,-46l41.76 0 0 -0.68c-25.3,0 -46,-20.7 -46,-46 0,-25.3 20.7,-46 46,-46l84.4 0c-11.35,-7.96 -18.73,-20.81 -18.73,-35.31 0,-8.78 2.7,-16.95 7.35,-23.8l0 -72.64 -0.34 0c-10.83,58.23 -61.89,102.31 -123.26,102.31 -69.25,0 -125.39,-56.14 -125.39,-125.39 0,-58.93 40.65,-108.35 95.44,-121.78l-65.71 -18.9 0 -31.65 -32.91 -41.29 314.99 0 0 -0.02 23.05 0 127.91 0 23.05 0 0 0.02 314.99 0 -32.91 41.29 0 31.65 -65.71 18.9c54.79,13.43 95.44,62.85 95.44,121.78 0,69.25 -56.14,125.39 -125.39,125.39 -61.37,0 -112.43,-44.08 -123.26,-102.31l-0.34 0 0 72.64c4.65,6.85 7.35,15.02 7.35,23.8 0,14.5 -7.38,27.35 -18.73,35.31l84.4 0c25.3,0 46,20.7 46,46 0,25.3 -20.7,46 -46,46l0 0.68 41.76 0c25.3,0 46,20.7 46,46 0,25.3 -20.73,46 -46,46l-14.23 0c37.24,1630.46 39.37,3253.4 0,4867.47l10.88 0c25.72,0 46.76,21.04 46.76,46.77l0 0.01c0,25.51 -20.71,46.42 -46.16,46.75l69.42 0 0 101.9 -251.75 0 -159.05 0 -251.75 0 0 -101.9z"/>
  <g style="clip-path:url(#id3)">
   <g id="_2135237157600">
    <path id="_1_2" class="fil3" d="M4479.33 11712.96l662.55 0 0 15 -662.55 0 0 -15zm0 -93.66l662.55 0 0 15 -662.55 0 0 -15zm0 -5051.5l662.55 0 0 15 -662.55 0 0 -15zm0 91.71l662.55 0 0 15 -662.55 0 0 -15zm0 92.02l662.55 0 0 15 -662.55 0 0 -15z"/>
   </g>
  </g>
  <path class="fil4" d="M4479.33 11720.24l69.42 0c-25.45,-0.33 -46.16,-21.24 -46.16,-46.75l0 -0.01c0,-25.73 21.04,-46.77 46.76,-46.77l10.88 0c-39.37,-1614.07 -37.24,-3237.01 0,-4867.47l-14.23 0c-25.27,0 -46,-20.7 -46,-46 0,-25.3 20.7,-46 46,-46l41.76 0 0 -0.68c-25.3,0 -46,-20.7 -46,-46 0,-25.3 20.7,-46 46,-46l84.4 0c-11.35,-7.96 -18.73,-20.81 -18.73,-35.31 0,-8.78 2.7,-16.95 7.35,-23.8l0 -72.64 -0.34 0c-10.83,58.23 -61.89,102.31 -123.26,102.31 -69.25,0 -125.39,-56.14 -125.39,-125.39 0,-58.93 40.65,-108.35 95.44,-121.78l-65.71 -18.9 0 -31.65 -32.91 -41.29 314.99 0 0 -0.02 23.05 0 127.91 0 23.05 0 0 0.02 314.99 0 -32.91 41.29 0 31.65 -65.71 18.9c54.79,13.43 95.44,62.85 95.44,121.78 0,69.25 -56.14,125.39 -125.39,125.39 -61.37,0 -112.43,-44.08 -123.26,-102.31l-0.34 0 0 72.64c4.65,6.85 7.35,15.02 7.35,23.8 0,14.5 -7.38,27.35 -18.73,35.31l84.4 0c25.3,0 46,20.7 46,46 0,25.3 -20.7,46 -46,46l0 0.68 41.76 0c25.3,0 46,20.7 46,46 0,25.3 -20.73,46 -46,46l-14.23 0c37.24,1630.46 39.37,3253.4 0,4867.47l10.88 0c25.72,0 46.76,21.04 46.76,46.77l0 0.01c0,25.51 -20.71,46.42 -46.16,46.75l69.42 0 0 101.9 -251.75 0 -159.05 0 -251.75 0 0 -101.9z"/>
  <path class="fil3" d="M4479.33 11712.74l32.68 0 -1.23 -1.21c-9.68,-9.8 -15.69,-23.26 -15.69,-38.04 0,-14.93 6.11,-28.52 15.93,-38.34 9.83,-9.83 23.41,-15.94 38.33,-15.94l3.22 0c-19.55,-804.47 -28.81,-1611.26 -28.54,-2420.09 0.27,-808.85 10.06,-1619.72 28.56,-2432.38l-6.59 0c-14.7,0 -28.09,-6.03 -37.78,-15.72 -9.69,-9.69 -15.72,-23.07 -15.72,-37.78 0,-14.71 6.02,-28.1 15.71,-37.79 9.69,-9.69 23.08,-15.71 37.79,-15.71l5.44 0 -1.44 -1.39c-9.72,-9.69 -15.74,-23.08 -15.74,-37.79 0,-14.71 6.02,-28.1 15.71,-37.79 9.69,-9.69 23.08,-15.71 37.79,-15.71l66.71 0 -2.74 -4.56c-3.69,-6.98 -5.8,-14.9 -5.8,-23.25 0,-5.04 0.78,-9.95 2.22,-14.62 1.23,-3.97 2.97,-7.78 5.13,-11.32l0 -28.93c-8.04,14.43 -18.68,27.19 -31.29,37.65 -23.03,19.09 -52.62,30.59 -84.81,30.59 -36.69,0 -69.92,-14.89 -93.96,-38.93 -24.05,-24.07 -38.93,-57.31 -38.93,-93.96 0,-30.86 10.56,-59.3 28.24,-81.87 13.15,-16.78 30.27,-30.33 49.94,-39.23l-48.45 -13.93 0 -34.7 -40.96 -51.39 835.1 0 -40.97 51.39 0 34.7 -48.45 13.93c19.67,8.9 36.79,22.45 49.94,39.23 17.68,22.57 28.24,51.01 28.24,81.87 0,36.68 -14.89,69.92 -38.93,93.96 -24.04,24.04 -57.28,38.93 -93.96,38.93 -32.19,0 -61.78,-11.5 -84.8,-30.61 -12.62,-10.44 -23.26,-23.2 -31.3,-37.63l0 28.93c2.16,3.54 3.9,7.35 5.13,11.32 1.44,4.67 2.22,9.58 2.22,14.62 0,8.35 -2.11,16.27 -5.8,23.25l-2.74 4.56 66.71 0c14.71,0 28.1,6.02 37.79,15.71 9.68,9.72 15.71,23.1 15.71,37.79 0,14.69 -6.03,28.07 -15.71,37.76l-1.47 1.42 5.44 0c14.71,0 28.1,6.02 37.79,15.71 9.68,9.72 15.71,23.1 15.71,37.79 0,14.71 -6.03,28.09 -15.72,37.78 -9.69,9.69 -23.08,15.72 -37.78,15.72l-6.59 0c18.5,812.66 28.29,1623.53 28.56,2432.38 0.26,808.83 -9,1615.62 -28.54,2420.09l3.22 0c14.92,0 28.5,6.11 38.33,15.94 9.82,9.82 15.93,23.41 15.93,38.33 0,14.79 -6.01,28.25 -15.69,38.05l-1.23 1.21 40.18 0 0 116.9 -677.55 0 0 -116.9 7.5 0zm68.42 0l1 0 0 15 -61.92 0 0 86.9 647.55 0 0 -86.9 -61.92 0 -0.09 -14.97 1.09 -0.03c10.24,-0.42 19.54,-4.82 26.31,-11.69 7,-7.09 11.35,-16.84 11.35,-27.56 0,-10.8 -4.43,-20.64 -11.53,-27.74 -7.12,-7.12 -16.94,-11.54 -27.73,-11.54l-18.53 0 0.18 -7.68c19.67,-807.02 28.98,-1616.24 28.73,-2427.41 -0.26,-811.18 -10.12,-1624.51 -28.73,-2439.73l-0.17 -7.65 21.87 0c10.57,0 20.21,-4.35 27.18,-11.32 6.97,-6.97 11.32,-16.6 11.32,-27.18 0,-10.59 -4.34,-20.24 -11.3,-27.2 -6.98,-6.96 -16.62,-11.3 -27.2,-11.3l-49.26 0 0 -15.68 7.5 0c10.59,0 20.24,-4.34 27.2,-11.3 6.96,-6.96 11.3,-16.61 11.3,-27.2 0,-10.59 -4.34,-20.24 -11.3,-27.2 -6.98,-6.96 -16.62,-11.3 -27.2,-11.3l-108.1 0 19.39 -13.62c4.81,-3.38 8.8,-7.82 11.5,-12.92 2.57,-4.86 4.04,-10.4 4.04,-16.27 0,-3.59 -0.53,-7.02 -1.52,-10.22 -1.04,-3.37 -2.58,-6.55 -4.51,-9.39l-1.32 -1.94 0 -82.39 14.05 0 1.14 6.15c5.12,27.56 19.89,51.8 40.66,69.03 20.37,16.95 46.62,27.13 75.25,27.13 32.55,0 62.04,-13.21 83.36,-34.53 21.32,-21.32 34.53,-50.81 34.53,-83.36 0,-27.43 -9.35,-52.67 -25.02,-72.67 -16.02,-20.43 -38.67,-35.46 -64.68,-41.84l-27.33 -6.7 87.3 -25.11 0 -28.61 24.86 -31.19 -772.89 0 24.86 31.19 0 28.61 87.31 25.11 -27.34 6.7c-26.01,6.38 -48.66,21.41 -64.68,41.84 -15.67,20 -25.02,45.24 -25.02,72.67 0,32.57 13.19,62.06 34.5,83.36 21.35,21.32 50.83,34.53 83.39,34.53 28.63,0 54.88,-10.18 75.25,-27.1 20.77,-17.26 35.54,-41.5 40.66,-69.06l1.15 -6.15 14.04 0 0 82.39 -1.32 1.94c-1.93,2.84 -3.47,6.02 -4.51,9.39 -0.99,3.2 -1.52,6.63 -1.52,10.22 0,5.87 1.47,11.41 4.04,16.27 2.7,5.1 6.69,9.54 11.5,12.92l19.4 13.62 -108.11 0c-10.58,0 -20.22,4.34 -27.19,11.31 -6.97,6.97 -11.31,16.61 -11.31,27.19 0,10.58 4.34,20.22 11.31,27.19 6.95,6.97 16.6,11.31 27.19,11.31l7.5 0 0 15.68 -49.26 0c-10.58,0 -20.22,4.34 -27.19,11.31 -6.97,6.97 -11.31,16.61 -11.31,27.19 0,10.58 4.35,20.21 11.32,27.18 6.97,6.97 16.61,11.32 27.18,11.32l21.88 0 -0.18 7.65c-18.61,815.22 -28.47,1628.55 -28.73,2439.73 -0.26,811.17 9.05,1620.4 28.73,2427.41l0.19 7.68 -18.54 0c-10.79,0 -20.61,4.42 -27.73,11.54 -7.1,7.1 -11.53,16.94 -11.53,27.73 0,10.73 4.35,20.48 11.35,27.57 6.77,6.87 16.07,11.27 26.31,11.69z"/>
  <path class="fil2" d="M5798.47 11720.24l69.42 0c-25.45,-0.33 -46.16,-21.24 -46.16,-46.75l0 -0.01c0,-25.73 21.04,-46.77 46.76,-46.77l10.88 0c-39.37,-1614.07 -37.24,-3237.01 0,-4867.47l-14.23 0c-25.27,0 -46,-20.7 -46,-46 0,-25.3 20.7,-46 46,-46l41.76 0 0 -0.68c-25.3,0 -46,-20.7 -46,-46 0,-25.3 20.7,-46 46,-46l84.4 0c-11.35,-7.96 -18.73,-20.81 -18.73,-35.31 0,-8.78 2.7,-16.95 7.35,-23.8l0 -72.64 -0.34 0c-10.83,58.23 -61.89,102.31 -123.26,102.31 -69.25,0 -125.39,-56.14 -125.39,-125.39 0,-58.93 40.65,-108.35 95.44,-121.78l-65.71 -18.9 0 -31.65 -32.91 -41.29 314.99 0 0 -0.02 23.05 0 127.91 0 23.05 0 0 0.02 314.99 0 -32.91 41.29 0 31.65 -65.71 18.9c54.79,13.43 95.44,62.85 95.44,121.78 0,69.25 -56.14,125.39 -125.39,125.39 -61.37,0 -112.43,-44.08 -123.26,-102.31l-0.34 0 0 72.64c4.65,6.85 7.35,15.02 7.35,23.8 0,14.5 -7.38,27.35 -18.73,35.31l84.4 0c25.3,0 46,20.7 46,46 0,25.3 -20.7,46 -46,46l0 0.68 41.76 0c25.3,0 46,20.7 46,46 0,25.3 -20.73,46 -46,46l-14.23 0c37.24,1630.46 39.37,3253.4 0,4867.47l10.88 0c25.72,0 46.76,21.04 46.76,46.77l0 0.01c0,25.51 -20.71,46.42 -46.16,46.75l69.42 0 0 101.9 -251.75 0 -159.05 0 -251.75 0 0 -101.9z"/>
  <g style="clip-path:url(#id4)">
   <g id="_2135237157216">
    <path id="_1_3" class="fil3" d="M5798.47 11712.96l662.55 0 0 15 -662.55 0 0 -15zm0 -93.66l662.55 0 0 15 -662.55 0 0 -15zm0 -5051.5l662.55 0 0 15 -662.55 0 0 -15zm0 91.71l662.55 0 0 15 -662.55 0 0 -15zm0 92.02l662.55 0 0 15 -662.55 0 0 -15z"/>
   </g>
  </g>
  <path class="fil4" d="M5798.47 11720.24l69.42 0c-25.45,-0.33 -46.16,-21.24 -46.16,-46.75l0 -0.01c0,-25.73 21.04,-46.77 46.76,-46.77l10.88 0c-39.37,-1614.07 -37.24,-3237.01 0,-4867.47l-14.23 0c-25.27,0 -46,-20.7 -46,-46 0,-25.3 20.7,-46 46,-46l41.76 0 0 -0.68c-25.3,0 -46,-20.7 -46,-46 0,-25.3 20.7,-46 46,-46l84.4 0c-11.35,-7.96 -18.73,-20.81 -18.73,-35.31 0,-8.78 2.7,-16.95 7.35,-23.8l0 -72.64 -0.34 0c-10.83,58.23 -61.89,102.31 -123.26,102.31 -69.25,0 -125.39,-56.14 -125.39,-125.39 0,-58.93 40.65,-108.35 95.44,-121.78l-65.71 -18.9 0 -31.65 -32.91 -41.29 314.99 0 0 -0.02 23.05 0 127.91 0 23.05 0 0 0.02 314.99 0 -32.91 41.29 0 31.65 -65.71 18.9c54.79,13.43 95.44,62.85 95.44,121.78 0,69.25 -56.14,125.39 -125.39,125.39 -61.37,0 -112.43,-44.08 -123.26,-102.31l-0.34 0 0 72.64c4.65,6.85 7.35,15.02 7.35,23.8 0,14.5 -7.38,27.35 -18.73,35.31l84.4 0c25.3,0 46,20.7 46,46 0,25.3 -20.7,46 -46,46l0 0.68 41.76 0c25.3,0 46,20.7 46,46 0,25.3 -20.73,46 -46,46l-14.23 0c37.24,1630.46 39.37,3253.4 0,4867.47l10.88 0c25.72,0 46.76,21.04 46.76,46.77l0 0.01c0,25.51 -20.71,46.42 -46.16,46.75l69.42 0 0 101.9 -251.75 0 -159.05 0 -251.75 0 0 -101.9z"/>
  <path class="fil3" d="M5798.47 11712.74l32.68 0 -1.23 -1.21c-9.68,-9.8 -15.69,-23.26 -15.69,-38.04 0,-14.93 6.11,-28.52 15.93,-38.34 9.83,-9.83 23.41,-15.94 38.33,-15.94l3.22 0c-19.54,-804.47 -28.8,-1611.26 -28.54,-2420.09 0.27,-808.85 10.06,-1619.72 28.56,-2432.38l-6.59 0c-14.7,0 -28.09,-6.03 -37.78,-15.72 -9.69,-9.69 -15.72,-23.07 -15.72,-37.78 0,-14.69 6.03,-28.07 15.71,-37.76 9.69,-9.72 23.08,-15.74 37.79,-15.74l5.44 0 -1.44 -1.39c-9.71,-9.72 -15.74,-23.1 -15.74,-37.79 0,-14.69 6.03,-28.07 15.71,-37.76 9.69,-9.72 23.08,-15.74 37.79,-15.74l66.71 0 -2.74 -4.56c-3.69,-6.98 -5.8,-14.9 -5.8,-23.25 0,-5.04 0.78,-9.95 2.22,-14.62 1.23,-3.97 2.97,-7.78 5.13,-11.32l0 -28.93c-8.04,14.43 -18.68,27.19 -31.29,37.65 -23.03,19.09 -52.62,30.59 -84.81,30.59 -36.68,0 -69.92,-14.89 -93.96,-38.93 -24.04,-24.04 -38.93,-57.28 -38.93,-93.96 0,-30.86 10.56,-59.3 28.24,-81.87 13.15,-16.78 30.27,-30.33 49.94,-39.23l-48.45 -13.93 0 -34.7 -40.97 -51.39 835.1 0 -40.96 51.39 0 34.7 -48.45 13.93c19.67,8.9 36.79,22.45 49.94,39.23 17.68,22.57 28.24,51.01 28.24,81.87 0,36.65 -14.88,69.89 -38.95,93.94 -24.02,24.06 -57.25,38.95 -93.94,38.95 -32.19,0 -61.78,-11.5 -84.8,-30.61 -12.62,-10.44 -23.26,-23.2 -31.3,-37.63l0 28.93c2.16,3.54 3.9,7.35 5.13,11.32 1.44,4.67 2.22,9.58 2.22,14.62 0,8.35 -2.11,16.27 -5.8,23.25l-2.74 4.56 66.71 0c14.71,0 28.1,6.02 37.79,15.71 9.69,9.69 15.71,23.08 15.71,37.79 0,14.71 -6.02,28.1 -15.71,37.79l-1.47 1.39 5.44 0c14.71,0 28.1,6.02 37.79,15.71 9.69,9.69 15.71,23.08 15.71,37.79 0,14.71 -6.03,28.09 -15.72,37.78 -9.69,9.69 -23.08,15.72 -37.78,15.72l-6.59 0c18.5,812.66 28.29,1623.53 28.56,2432.38 0.27,808.83 -8.99,1615.62 -28.54,2420.09l3.22 0c14.92,0 28.5,6.11 38.33,15.94 9.82,9.82 15.93,23.41 15.93,38.33 0,14.79 -6.01,28.25 -15.69,38.05l-1.23 1.21 40.18 0 0 116.9 -677.55 0 0 -116.9 7.5 0zm68.42 0l1 0 0 15 -61.92 0 0 86.9 647.55 0 0 -86.9 -61.92 0 -0.09 -14.97 1.09 -0.03c10.24,-0.42 19.54,-4.82 26.31,-11.69 7,-7.09 11.35,-16.84 11.35,-27.56 0,-10.8 -4.43,-20.64 -11.53,-27.74 -7.12,-7.12 -16.94,-11.54 -27.73,-11.54l-18.54 0 0.19 -7.68c19.68,-807.01 28.99,-1616.24 28.73,-2427.41 -0.26,-811.18 -10.12,-1624.51 -28.73,-2439.73l-0.18 -7.65 21.88 0c10.57,0 20.21,-4.35 27.18,-11.32 6.97,-6.97 11.32,-16.6 11.32,-27.18 0,-10.58 -4.34,-20.22 -11.31,-27.19 -6.97,-6.97 -16.61,-11.31 -27.19,-11.31l-49.26 0 0 -15.68 7.5 0c10.59,0 20.24,-4.34 27.2,-11.3 6.96,-6.98 11.3,-16.62 11.3,-27.2 0,-10.58 -4.34,-20.22 -11.31,-27.19 -6.97,-6.97 -16.61,-11.31 -27.19,-11.31l-108.11 0 19.4 -13.62c4.81,-3.38 8.8,-7.82 11.5,-12.92 2.57,-4.86 4.04,-10.4 4.04,-16.27 0,-3.59 -0.53,-7.02 -1.52,-10.22 -1.04,-3.37 -2.58,-6.55 -4.51,-9.39l-1.32 -1.94 0 -82.39 14.04 0 1.15 6.15c5.12,27.56 19.89,51.8 40.66,69.03 20.37,16.95 46.62,27.13 75.25,27.13 32.56,0 62.04,-13.21 83.36,-34.53 21.34,-21.3 34.53,-50.79 34.53,-83.36 0,-27.43 -9.35,-52.67 -25.02,-72.67 -16.02,-20.43 -38.67,-35.46 -64.68,-41.84l-27.34 -6.7 87.31 -25.11 0 -28.61 24.86 -31.19 -772.89 0 24.86 31.19 0 28.61 87.3 25.11 -27.33 6.7c-26.01,6.38 -48.66,21.41 -64.68,41.84 -15.67,20 -25.02,45.24 -25.02,72.67 0,32.55 13.21,62.04 34.53,83.36 21.32,21.32 50.81,34.53 83.36,34.53 28.63,0 54.88,-10.18 75.25,-27.1 20.77,-17.26 35.54,-41.5 40.66,-69.06l1.14 -6.15 14.05 0 0 82.39 -1.32 1.94c-1.93,2.84 -3.47,6.02 -4.51,9.39 -0.99,3.2 -1.52,6.63 -1.52,10.22 0,5.87 1.47,11.41 4.04,16.27 2.7,5.1 6.69,9.54 11.5,12.92l19.39 13.62 -108.1 0c-10.58,0 -20.22,4.34 -27.19,11.31 -6.97,6.95 -11.31,16.6 -11.31,27.19 0,10.59 4.34,20.24 11.3,27.2 6.96,6.96 16.61,11.3 27.2,11.3l7.5 0 0 15.68 -49.26 0c-10.58,0 -20.22,4.34 -27.19,11.31 -6.97,6.95 -11.31,16.6 -11.31,27.19 0,10.58 4.35,20.21 11.32,27.18 6.97,6.97 16.61,11.32 27.18,11.32l21.87 0 -0.17 7.65c-18.61,815.22 -28.47,1628.55 -28.73,2439.73 -0.25,811.17 9.06,1620.39 28.73,2427.41l0.18 7.68 -18.53 0c-10.79,0 -20.61,4.42 -27.73,11.54 -7.1,7.1 -11.53,16.94 -11.53,27.73 0,10.73 4.35,20.48 11.35,27.57 6.77,6.87 16.07,11.27 26.31,11.69z"/>
  <path class="fil2" d="M7125.81 11720.24l69.42 0c-25.45,-0.33 -46.16,-21.24 -46.16,-46.75l0 -0.01c0,-25.73 21.04,-46.77 46.76,-46.77l10.88 0c-39.37,-1614.07 -37.24,-3237.01 0,-4867.47l-14.23 0c-25.27,0 -46,-20.7 -46,-46 0,-25.3 20.7,-46 46,-46l41.76 0 0 -0.68c-25.3,0 -46,-20.7 -46,-46 0,-25.3 20.7,-46 46,-46l84.4 0c-11.35,-7.96 -18.73,-20.81 -18.73,-35.31 0,-8.78 2.7,-16.95 7.35,-23.8l0 -72.64 -0.34 0c-10.83,58.23 -61.89,102.31 -123.26,102.31 -69.25,0 -125.39,-56.14 -125.39,-125.39 0,-58.93 40.65,-108.35 95.44,-121.78l-65.71 -18.9 0 -31.65 -32.91 -41.29 314.99 0 0 -0.02 23.05 0 127.91 0 23.05 0 0 0.02 314.99 0 -32.91 41.29 0 31.65 -65.71 18.9c54.79,13.43 95.44,62.85 95.44,121.78 0,69.25 -56.14,125.39 -125.39,125.39 -61.37,0 -112.43,-44.08 -123.26,-102.31l-0.34 0 0 72.64c4.65,6.85 7.35,15.02 7.35,23.8 0,14.5 -7.38,27.35 -18.73,35.31l84.4 0c25.3,0 46,20.7 46,46 0,25.3 -20.7,46 -46,46l0 0.68 41.76 0c25.3,0 46,20.7 46,46 0,25.3 -20.73,46 -46,46l-14.23 0c37.24,1630.46 39.37,3253.4 0,4867.47l10.88 0c25.72,0 46.76,21.04 46.76,46.77l0 0.01c0,25.51 -20.71,46.42 -46.16,46.75l69.42 0 0 101.9 -251.75 0 -159.05 0 -251.75 0 0 -101.9z"/>
  <g style="clip-path:url(#id5)">
   <g id="_2135237156448">
    <path id="_1_4" class="fil3" d="M7125.81 11712.96l662.55 0 0 15 -662.55 0 0 -15zm0 -93.66l662.55 0 0 15 -662.55 0 0 -15zm0 -5051.5l662.55 0 0 15 -662.55 0 0 -15zm0 91.71l662.55 0 0 15 -662.55 0 0 -15zm0 92.02l662.55 0 0 15 -662.55 0 0 -15z"/>
   </g>
  </g>
  <path class="fil4" d="M7125.81 11720.24l69.42 0c-25.45,-0.33 -46.16,-21.24 -46.16,-46.75l0 -0.01c0,-25.73 21.04,-46.77 46.76,-46.77l10.88 0c-39.37,-1614.07 -37.24,-3237.01 0,-4867.47l-14.23 0c-25.27,0 -46,-20.7 -46,-46 0,-25.3 20.7,-46 46,-46l41.76 0 0 -0.68c-25.3,0 -46,-20.7 -46,-46 0,-25.3 20.7,-46 46,-46l84.4 0c-11.35,-7.96 -18.73,-20.81 -18.73,-35.31 0,-8.78 2.7,-16.95 7.35,-23.8l0 -72.64 -0.34 0c-10.83,58.23 -61.89,102.31 -123.26,102.31 -69.25,0 -125.39,-56.14 -125.39,-125.39 0,-58.93 40.65,-108.35 95.44,-121.78l-65.71 -18.9 0 -31.65 -32.91 -41.29 314.99 0 0 -0.02 23.05 0 127.91 0 23.05 0 0 0.02 314.99 0 -32.91 41.29 0 31.65 -65.71 18.9c54.79,13.43 95.44,62.85 95.44,121.78 0,69.25 -56.14,125.39 -125.39,125.39 -61.37,0 -112.43,-44.08 -123.26,-102.31l-0.34 0 0 72.64c4.65,6.85 7.35,15.02 7.35,23.8 0,14.5 -7.38,27.35 -18.73,35.31l84.4 0c25.3,0 46,20.7 46,46 0,25.3 -20.7,46 -46,46l0 0.68 41.76 0c25.3,0 46,20.7 46,46 0,25.3 -20.73,46 -46,46l-14.23 0c37.24,1630.46 39.37,3253.4 0,4867.47l10.88 0c25.72,0 46.76,21.04 46.76,46.77l0 0.01c0,25.51 -20.71,46.42 -46.16,46.75l69.42 0 0 101.9 -251.75 0 -159.05 0 -251.75 0 0 -101.9z"/>
  <path class="fil3" d="M7125.81 11712.74l32.68 0 -1.23 -1.21c-9.68,-9.8 -15.69,-23.26 -15.69,-38.04 0,-14.93 6.11,-28.52 15.93,-38.34 9.83,-9.83 23.41,-15.94 38.33,-15.94l3.22 0c-19.54,-804.47 -28.8,-1611.26 -28.54,-2420.09 0.27,-808.85 10.06,-1619.72 28.56,-2432.38l-6.59 0c-14.7,0 -28.09,-6.03 -37.78,-15.72 -9.69,-9.69 -15.72,-23.07 -15.72,-37.78 0,-14.69 6.03,-28.07 15.71,-37.76 9.69,-9.72 23.08,-15.74 37.79,-15.74l5.44 0 -1.44 -1.39c-9.71,-9.72 -15.74,-23.1 -15.74,-37.79 0,-14.69 6.03,-28.07 15.71,-37.76 9.69,-9.72 23.08,-15.74 37.79,-15.74l66.71 0 -2.74 -4.56c-3.69,-6.98 -5.8,-14.9 -5.8,-23.25 0,-5.04 0.78,-9.95 2.22,-14.62 1.23,-3.97 2.97,-7.78 5.13,-11.32l0 -28.93c-8.04,14.43 -18.68,27.19 -31.29,37.65 -23.03,19.09 -52.62,30.59 -84.81,30.59 -36.68,0 -69.92,-14.89 -93.96,-38.93 -24.04,-24.04 -38.93,-57.28 -38.93,-93.96 0,-30.86 10.56,-59.3 28.24,-81.87 13.15,-16.78 30.27,-30.33 49.94,-39.23l-48.45 -13.93 0 -34.7 -40.97 -51.39 835.1 0 -40.96 51.39 0 34.7 -48.45 13.93c19.67,8.9 36.79,22.45 49.94,39.23 17.68,22.57 28.24,51.01 28.24,81.87 0,36.65 -14.88,69.89 -38.95,93.94 -24.02,24.06 -57.25,38.95 -93.94,38.95 -32.19,0 -61.78,-11.5 -84.8,-30.61 -12.62,-10.44 -23.26,-23.2 -31.3,-37.63l0 28.93c2.16,3.54 3.9,7.35 5.13,11.32 1.44,4.67 2.22,9.58 2.22,14.62 0,8.35 -2.11,16.27 -5.8,23.25l-2.74 4.56 66.71 0c14.71,0 28.1,6.02 37.79,15.71 9.69,9.69 15.71,23.08 15.71,37.79 0,14.71 -6.02,28.1 -15.71,37.79l-1.47 1.39 5.44 0c14.71,0 28.1,6.02 37.79,15.71 9.69,9.69 15.71,23.08 15.71,37.79 0,14.71 -6.03,28.09 -15.72,37.78 -9.69,9.69 -23.08,15.72 -37.78,15.72l-6.59 0c18.5,812.66 28.29,1623.53 28.56,2432.38 0.27,808.83 -8.99,1615.62 -28.54,2420.09l3.22 0c14.92,0 28.5,6.11 38.33,15.94 9.82,9.82 15.93,23.41 15.93,38.33 0,14.79 -6.01,28.25 -15.69,38.05l-1.23 1.21 40.18 0 0 116.9 -677.55 0 0 -116.9 7.5 0zm68.42 0l1 0 0 15 -61.92 0 0 86.9 647.55 0 0 -86.9 -61.92 0 -0.09 -14.97 1.09 -0.03c10.24,-0.42 19.54,-4.82 26.31,-11.69 7,-7.09 11.35,-16.84 11.35,-27.56 0,-10.8 -4.43,-20.64 -11.53,-27.74 -7.12,-7.12 -16.94,-11.54 -27.73,-11.54l-18.54 0 0.19 -7.68c19.68,-807.01 28.99,-1616.24 28.73,-2427.41 -0.26,-811.18 -10.12,-1624.51 -28.73,-2439.73l-0.18 -7.65 21.88 0c10.57,0 20.21,-4.35 27.18,-11.32 6.97,-6.97 11.32,-16.6 11.32,-27.18 0,-10.58 -4.34,-20.22 -11.31,-27.19 -6.97,-6.97 -16.61,-11.31 -27.19,-11.31l-49.26 0 0 -15.68 7.5 0c10.59,0 20.24,-4.34 27.2,-11.3 6.96,-6.98 11.3,-16.62 11.3,-27.2 0,-10.58 -4.34,-20.22 -11.31,-27.19 -6.97,-6.97 -16.61,-11.31 -27.19,-11.31l-108.11 0 19.4 -13.62c4.81,-3.38 8.8,-7.82 11.5,-12.92 2.57,-4.86 4.04,-10.4 4.04,-16.27 0,-3.59 -0.53,-7.02 -1.52,-10.22 -1.04,-3.37 -2.58,-6.55 -4.51,-9.39l-1.32 -1.94 0 -82.39 14.04 0 1.15 6.15c5.12,27.56 19.89,51.8 40.66,69.03 20.37,16.95 46.62,27.13 75.25,27.13 32.56,0 62.04,-13.21 83.36,-34.53 21.34,-21.3 34.53,-50.79 34.53,-83.36 0,-27.43 -9.35,-52.67 -25.02,-72.67 -16.02,-20.43 -38.67,-35.46 -64.68,-41.84l-27.34 -6.7 87.31 -25.11 0 -28.61 24.86 -31.19 -772.89 0 24.86 31.19 0 28.61 87.3 25.11 -27.33 6.7c-26.01,6.38 -48.66,21.41 -64.68,41.84 -15.67,20 -25.02,45.24 -25.02,72.67 0,32.55 13.21,62.04 34.53,83.36 21.32,21.32 50.81,34.53 83.36,34.53 28.63,0 54.88,-10.18 75.25,-27.1 20.77,-17.26 35.54,-41.5 40.66,-69.06l1.14 -6.15 14.05 0 0 82.39 -1.32 1.94c-1.93,2.84 -3.47,6.02 -4.51,9.39 -0.99,3.2 -1.52,6.63 -1.52,10.22 0,5.87 1.47,11.41 4.04,16.27 2.7,5.1 6.69,9.54 11.5,12.92l19.39 13.62 -108.1 0c-10.58,0 -20.22,4.34 -27.19,11.31 -6.97,6.95 -11.31,16.6 -11.31,27.19 0,10.59 4.34,20.24 11.3,27.2 6.96,6.96 16.61,11.3 27.2,11.3l7.5 0 0 15.68 -49.26 0c-10.58,0 -20.22,4.34 -27.19,11.31 -6.97,6.95 -11.31,16.6 -11.31,27.19 0,10.58 4.35,20.21 11.32,27.18 6.97,6.97 16.61,11.32 27.18,11.32l21.87 0 -0.17 7.65c-18.61,815.22 -28.47,1628.55 -28.73,2439.73 -0.25,811.17 9.06,1620.39 28.73,2427.41l0.18 7.68 -18.53 0c-10.79,0 -20.61,4.42 -27.73,11.54 -7.1,7.1 -11.53,16.94 -11.53,27.73 0,10.73 4.35,20.48 11.35,27.57 6.77,6.87 16.07,11.27 26.31,11.69z"/>
  <path class="fil2" d="M7986.12 11720.24l69.42 0c-25.45,-0.33 -46.16,-21.24 -46.16,-46.75l0 -0.01c0,-25.73 21.04,-46.77 46.76,-46.77l10.88 0c-39.37,-1614.07 -37.24,-3237.01 0,-4867.47l-14.23 0c-25.27,0 -46,-20.7 -46,-46 0,-25.3 20.7,-46 46,-46l41.76 0 0 -0.68c-25.3,0 -46,-20.7 -46,-46 0,-25.3 20.7,-46 46,-46l84.4 0c-11.35,-7.96 -18.73,-20.81 -18.73,-35.31 0,-8.78 2.7,-16.95 7.35,-23.8l0 -72.64 -0.34 0c-10.83,58.23 -61.89,102.31 -123.26,102.31 -69.25,0 -125.39,-56.14 -125.39,-125.39 0,-58.93 40.65,-108.35 95.44,-121.78l-65.71 -18.9 0 -31.65 -32.91 -41.29 314.99 0 0 -0.02 23.05 0 127.91 0 23.05 0 0 0.02 314.99 0 -32.91 41.29 0 31.65 -65.71 18.9c54.79,13.43 95.44,62.85 95.44,121.78 0,69.25 -56.14,125.39 -125.39,125.39 -61.37,0 -112.43,-44.08 -123.26,-102.31l-0.34 0 0 72.64c4.65,6.85 7.35,15.02 7.35,23.8 0,14.5 -7.38,27.35 -18.73,35.31l84.4 0c25.3,0 46,20.7 46,46 0,25.3 -20.7,46 -46,46l0 0.68 41.76 0c25.3,0 46,20.7 46,46 0,25.3 -20.73,46 -46,46l-14.23 0c37.24,1630.46 39.37,3253.4 0,4867.47l10.88 0c25.72,0 46.76,21.04 46.76,46.77l0 0.01c0,25.51 -20.71,46.42 -46.16,46.75l69.42 0 0 101.9 -251.75 0 -159.05 0 -251.75 0 0 -101.9z"/>
  <g style="clip-path:url(#id6)">
   <g id="_2135237155728">
    <path id="_1_5" class="fil3" d="M7986.12 11712.96l662.55 0 0 15 -662.55 0 0 -15zm0 -93.66l662.55 0 0 15 -662.55 0 0 -15zm0 -5051.5l662.55 0 0 15 -662.55 0 0 -15zm0 91.71l662.55 0 0 15 -662.55 0 0 -15zm0 92.02l662.55 0 0 15 -662.55 0 0 -15z"/>
   </g>
  </g>
  <path class="fil4" d="M7986.12 11720.24l69.42 0c-25.45,-0.33 -46.16,-21.24 -46.16,-46.75l0 -0.01c0,-25.73 21.04,-46.77 46.76,-46.77l10.88 0c-39.37,-1614.07 -37.24,-3237.01 0,-4867.47l-14.23 0c-25.27,0 -46,-20.7 -46,-46 0,-25.3 20.7,-46 46,-46l41.76 0 0 -0.68c-25.3,0 -46,-20.7 -46,-46 0,-25.3 20.7,-46 46,-46l84.4 0c-11.35,-7.96 -18.73,-20.81 -18.73,-35.31 0,-8.78 2.7,-16.95 7.35,-23.8l0 -72.64 -0.34 0c-10.83,58.23 -61.89,102.31 -123.26,102.31 -69.25,0 -125.39,-56.14 -125.39,-125.39 0,-58.93 40.65,-108.35 95.44,-121.78l-65.71 -18.9 0 -31.65 -32.91 -41.29 314.99 0 0 -0.02 23.05 0 127.91 0 23.05 0 0 0.02 314.99 0 -32.91 41.29 0 31.65 -65.71 18.9c54.79,13.43 95.44,62.85 95.44,121.78 0,69.25 -56.14,125.39 -125.39,125.39 -61.37,0 -112.43,-44.08 -123.26,-102.31l-0.34 0 0 72.64c4.65,6.85 7.35,15.02 7.35,23.8 0,14.5 -7.38,27.35 -18.73,35.31l84.4 0c25.3,0 46,20.7 46,46 0,25.3 -20.7,46 -46,46l0 0.68 41.76 0c25.3,0 46,20.7 46,46 0,25.3 -20.73,46 -46,46l-14.23 0c37.24,1630.46 39.37,3253.4 0,4867.47l10.88 0c25.72,0 46.76,21.04 46.76,46.77l0 0.01c0,25.51 -20.71,46.42 -46.16,46.75l69.42 0 0 101.9 -251.75 0 -159.05 0 -251.75 0 0 -101.9z"/>
  <path class="fil3" d="M7986.12 11712.74l32.68 0 -1.23 -1.21c-9.68,-9.8 -15.69,-23.26 -15.69,-38.04 0,-14.93 6.11,-28.52 15.93,-38.34 9.83,-9.83 23.41,-15.94 38.33,-15.94l3.22 0c-19.54,-804.47 -28.8,-1611.26 -28.54,-2420.09 0.27,-808.85 10.06,-1619.72 28.56,-2432.38l-6.59 0c-14.7,0 -28.09,-6.03 -37.78,-15.72 -9.69,-9.69 -15.72,-23.07 -15.72,-37.78 0,-14.69 6.03,-28.07 15.71,-37.76 9.69,-9.72 23.08,-15.74 37.79,-15.74l5.44 0 -1.44 -1.39c-9.71,-9.72 -15.74,-23.1 -15.74,-37.79 0,-14.69 6.03,-28.07 15.71,-37.76 9.69,-9.72 23.08,-15.74 37.79,-15.74l66.71 0 -2.74 -4.56c-3.69,-6.98 -5.8,-14.9 -5.8,-23.25 0,-5.04 0.78,-9.95 2.22,-14.62 1.23,-3.97 2.97,-7.78 5.13,-11.32l0 -28.93c-8.04,14.43 -18.68,27.19 -31.29,37.65 -23.03,19.09 -52.62,30.59 -84.81,30.59 -36.68,0 -69.92,-14.89 -93.96,-38.93 -24.04,-24.04 -38.93,-57.28 -38.93,-93.96 0,-30.86 10.56,-59.3 28.24,-81.87 13.15,-16.78 30.27,-30.33 49.94,-39.23l-48.45 -13.93 0 -34.7 -40.97 -51.39 835.1 0 -40.96 51.39 0 34.7 -48.45 13.93c19.67,8.9 36.79,22.45 49.94,39.23 17.68,22.57 28.24,51.01 28.24,81.87 0,36.65 -14.88,69.89 -38.95,93.94 -24.02,24.06 -57.25,38.95 -93.94,38.95 -32.19,0 -61.78,-11.5 -84.8,-30.61 -12.62,-10.44 -23.26,-23.2 -31.3,-37.63l0 28.93c2.16,3.54 3.9,7.35 5.13,11.32 1.44,4.67 2.22,9.58 2.22,14.62 0,8.35 -2.11,16.27 -5.8,23.25l-2.74 4.56 66.71 0c14.71,0 28.1,6.02 37.79,15.71 9.69,9.69 15.71,23.08 15.71,37.79 0,14.71 -6.02,28.1 -15.71,37.79l-1.47 1.39 5.44 0c14.71,0 28.1,6.02 37.79,15.71 9.69,9.69 15.71,23.08 15.71,37.79 0,14.71 -6.03,28.09 -15.72,37.78 -9.69,9.69 -23.08,15.72 -37.78,15.72l-6.59 0c18.5,812.66 28.29,1623.53 28.56,2432.38 0.27,808.83 -8.99,1615.62 -28.54,2420.09l3.22 0c14.92,0 28.5,6.11 38.33,15.94 9.82,9.82 15.93,23.41 15.93,38.33 0,14.79 -6.01,28.25 -15.69,38.05l-1.23 1.21 40.18 0 0 116.9 -677.55 0 0 -116.9 7.5 0zm68.42 0l1 0 0 15 -61.92 0 0 86.9 647.55 0 0 -86.9 -61.92 0 -0.09 -14.97 1.09 -0.03c10.24,-0.42 19.54,-4.82 26.31,-11.69 7,-7.09 11.35,-16.84 11.35,-27.56 0,-10.8 -4.43,-20.64 -11.53,-27.74 -7.12,-7.12 -16.94,-11.54 -27.73,-11.54l-18.54 0 0.19 -7.68c19.68,-807.01 28.99,-1616.24 28.73,-2427.41 -0.26,-811.18 -10.12,-1624.51 -28.73,-2439.73l-0.18 -7.65 21.88 0c10.57,0 20.21,-4.35 27.18,-11.32 6.97,-6.97 11.32,-16.6 11.32,-27.18 0,-10.58 -4.34,-20.22 -11.31,-27.19 -6.97,-6.97 -16.61,-11.31 -27.19,-11.31l-49.26 0 0 -15.68 7.5 0c10.59,0 20.24,-4.34 27.2,-11.3 6.96,-6.98 11.3,-16.62 11.3,-27.2 0,-10.58 -4.34,-20.22 -11.31,-27.19 -6.97,-6.97 -16.61,-11.31 -27.19,-11.31l-108.11 0 19.4 -13.62c4.81,-3.38 8.8,-7.82 11.5,-12.92 2.57,-4.86 4.04,-10.4 4.04,-16.27 0,-3.59 -0.53,-7.02 -1.52,-10.22 -1.04,-3.37 -2.58,-6.55 -4.51,-9.39l-1.32 -1.94 0 -82.39 14.04 0 1.15 6.15c5.12,27.56 19.89,51.8 40.66,69.03 20.37,16.95 46.62,27.13 75.25,27.13 32.56,0 62.04,-13.21 83.36,-34.53 21.34,-21.3 34.53,-50.79 34.53,-83.36 0,-27.43 -9.35,-52.67 -25.02,-72.67 -16.02,-20.43 -38.67,-35.46 -64.68,-41.84l-27.34 -6.7 87.31 -25.11 0 -28.61 24.86 -31.19 -772.89 0 24.86 31.19 0 28.61 87.3 25.11 -27.33 6.7c-26.01,6.38 -48.66,21.41 -64.68,41.84 -15.67,20 -25.02,45.24 -25.02,72.67 0,32.55 13.21,62.04 34.53,83.36 21.32,21.32 50.81,34.53 83.36,34.53 28.63,0 54.88,-10.18 75.25,-27.1 20.77,-17.26 35.54,-41.5 40.66,-69.06l1.14 -6.15 14.05 0 0 82.39 -1.32 1.94c-1.93,2.84 -3.47,6.02 -4.51,9.39 -0.99,3.2 -1.52,6.63 -1.52,10.22 0,5.87 1.47,11.41 4.04,16.27 2.7,5.1 6.69,9.54 11.5,12.92l19.39 13.62 -108.1 0c-10.58,0 -20.22,4.34 -27.19,11.31 -6.97,6.95 -11.31,16.6 -11.31,27.19 0,10.59 4.34,20.24 11.3,27.2 6.96,6.96 16.61,11.3 27.2,11.3l7.5 0 0 15.68 -49.26 0c-10.58,0 -20.22,4.34 -27.19,11.31 -6.97,6.95 -11.31,16.6 -11.31,27.19 0,10.58 4.35,20.21 11.32,27.18 6.97,6.97 16.61,11.32 27.18,11.32l21.87 0 -0.17 7.65c-18.61,815.22 -28.47,1628.55 -28.73,2439.73 -0.25,811.17 9.06,1620.39 28.73,2427.41l0.18 7.68 -18.53 0c-10.79,0 -20.61,4.42 -27.73,11.54 -7.1,7.1 -11.53,16.94 -11.53,27.73 0,10.73 4.35,20.48 11.35,27.57 6.77,6.87 16.07,11.27 26.31,11.69z"/>
  <path class="fil2" d="M2268.52 13904.55l0 -482.96 -53.59 0 53.59 -61.82 0 -1485.4 -53.59 -51.82c2173.83,0.04 4347.66,0.04 6521.49,0l-53.59 51.82 0 1485.4 53.59 61.82 -53.59 0 0 482.96c-2138.1,0 -4276.21,0 -6414.31,0z"/>
  <g style="clip-path:url(#id7)">
   <g id="_2135237157120">
    <path id="_1_6" class="fil4 str0" d="M2253.58 11874.69l6459.5 0m-844.61 1481.26l0 -490.22m-800.53 490.22l0 -490.22m-800.53 490.22l0 -490.22m-800.53 490.22l0 -490.22m-800.53 490.22l0 -490.22m-800.53 490.22l0 -490.22m-800.53 490.22l0 -490.22m5200.45 -2.9l0 -497.72m-800.08 497.72l0 -497.72m-800.08 497.72l0 -497.72m-800.08 497.72l0 -497.72m-800.08 497.72l0 -497.72m-800.08 497.72l0 -497.72m-800.08 497.72l0 -497.72m-800.08 497.72l0 -497.72m5217.11 -0.79l0 -487.21m-803.02 487.21l0 -487.21m-803.02 487.21l0 -487.21m-803.02 487.21l0 -487.21m-803.02 487.21l0 -487.21m-803.02 487.21l0 -487.21m-803.02 487.21l0 -487.21m-810.59 1544.39l6459.5 0m-6459.5 -64.5l6459.5 0m-6459.5 -493.45l6459.5 0m-6459.5 -499.55l6459.5 0"/>
   </g>
  </g>
  <path class="fil4" d="M2268.52 13904.55l0 -482.96 -53.59 0 53.59 -61.82 0 -1485.4 -53.59 -51.82c2173.83,0.04 4347.66,0.04 6521.49,0l-53.59 51.82 0 1485.4 53.59 61.82 -53.59 0 0 482.96c-2138.1,0 -4276.21,0 -6414.31,0z"/>
  <path class="fil3" d="M2261.02 13904.55l0 -475.46 -62.48 0 62.48 -72.08 0 -1479.48 -64.57 -62.46c2186.11,1.18 4372.34,1.18 6558.45,0l-64.57 62.46 0 1479.48 62.48 72.08 -62.48 0 0 482.96 -6429.31 0 0 -7.5zm15 -482.96l0 475.46 6399.31 0 0 -482.96 44.7 0 -44.7 -51.57 0 -1491.31 42.6 -41.19 -6484.51 0 42.6 41.19 0 1491.31 -44.7 51.57 44.7 0 0 7.5z"/>
 </g>
</svg>
