<svg width="40" height="40" viewBox="0 0 40 40" fill="none" xmlns="http://www.w3.org/2000/svg">
<mask id="mask0_1521_683" style="mask-type:alpha" maskUnits="userSpaceOnUse" x="0" y="0" width="40" height="40">
<rect width="40" height="40" fill="#D9D9D9"/>
</mask>
<g mask="url(#mask0_1521_683)">
<path d="M13.7691 27.4995L18.0938 23.1662L22.4185 27.4995L24.7472 25.1662L20.4225 20.8328L24.7472 16.4995L22.4185 14.1662L18.0938 18.4995L13.7691 14.1662L11.4405 16.4995L15.7652 20.8328L11.4405 25.1662L13.7691 27.4995ZM9.77713 34.9995C8.86229 34.9995 8.07914 34.6731 7.42766 34.0203C6.77619 33.3676 6.45045 32.5828 6.45045 31.6662V9.99951H4.78711V6.66618H13.1038V4.99951H23.0839V6.66618H31.4006V9.99951H29.7372V31.6662C29.7372 32.5828 29.4115 33.3676 28.76 34.0203C28.1085 34.6731 27.3254 34.9995 26.4105 34.9995H9.77713ZM26.4105 9.99951H9.77713V31.6662H26.4105V9.99951Z" fill="#1C1B1F"/>
</g>
</svg>
