<svg width="40" height="40" viewBox="0 0 40 40" fill="none" xmlns="http://www.w3.org/2000/svg">
<mask id="mask0_1164_749" style="mask-type:alpha" maskUnits="userSpaceOnUse" x="0" y="0" width="40" height="40">
<rect width="40" height="40" fill="#D9D9D9"/>
</mask>
<g mask="url(#mask0_1164_749)">
<path d="M15.667 27.4995L20.0003 23.1662L24.3337 27.4995L26.667 25.1662L22.3337 20.8328L26.667 16.4995L24.3337 14.1662L20.0003 18.4995L15.667 14.1662L13.3337 16.4995L17.667 20.8328L13.3337 25.1662L15.667 27.4995ZM11.667 34.9995C10.7503 34.9995 9.9656 34.6731 9.31283 34.0203C8.66005 33.3676 8.33366 32.5828 8.33366 31.6662V9.99951H6.66699V6.66618H15.0003V4.99951H25.0003V6.66618H33.3337V9.99951H31.667V31.6662C31.667 32.5828 31.3406 33.3676 30.6878 34.0203C30.035 34.6731 29.2503 34.9995 28.3337 34.9995H11.667ZM28.3337 9.99951H11.667V31.6662H28.3337V9.99951Z" fill="#1C1B1F"/>
</g>
</svg>
