<svg width="40" height="40" viewBox="0 0 40 40" fill="none" xmlns="http://www.w3.org/2000/svg">
<mask id="mask0_1521_680" style="mask-type:alpha" maskUnits="userSpaceOnUse" x="0" y="0" width="40" height="40">
<rect width="40" height="40" fill="#D9D9D9"/>
</mask>
<g mask="url(#mask0_1521_680)">
<path d="M6.64992 31.6667H9.02018L25.2793 15.375L22.9091 13L6.64992 29.2917V31.6667ZM3.32324 35V27.9167L25.2793 5.95833C25.612 5.65278 25.9793 5.41667 26.3813 5.25C26.7833 5.08333 27.206 5 27.6496 5C28.0931 5 28.5228 5.08333 28.9387 5.25C29.3545 5.41667 29.7149 5.66667 30.0199 6L32.3069 8.33333C32.6396 8.63889 32.8822 9 33.0347 9.41667C33.1871 9.83333 33.2634 10.25 33.2634 10.6667C33.2634 11.1111 33.1871 11.5347 33.0347 11.9375C32.8822 12.3403 32.6396 12.7083 32.3069 13.0417L10.3924 35H3.32324ZM24.0734 14.2083L22.9091 13L25.2793 15.375L24.0734 14.2083Z" fill="#1C1B1F"/>
</g>
</svg>
