<svg width="28" height="28" viewBox="0 0 28 28" fill="none" xmlns="http://www.w3.org/2000/svg">
<path d="M14 28C12.0804 28 10.269 27.632 8.56581 26.8961C6.86257 26.1602 5.37707 25.1584 4.10931 23.8907C2.84157 22.6229 1.83975 21.1374 1.10387 19.4342C0.367955 17.731 0 15.9196 0 14C0 12.0653 0.367955 10.2501 1.10387 8.55447C1.83975 6.85879 2.84157 5.37707 4.10931 4.10931C5.37707 2.84157 6.86257 1.83975 8.56581 1.10387C10.269 0.367957 12.0804 0 14 0C15.9347 0 17.7499 0.367957 19.4455 1.10387C21.1412 1.83975 22.6229 2.84157 23.8907 4.10931C25.1584 5.37707 26.1602 6.85879 26.8961 8.55447C27.632 10.2501 28 12.0653 28 14C28 15.9196 27.632 17.731 26.8961 19.4342C26.1602 21.1374 25.1584 22.6229 23.8907 23.8907C22.6229 25.1584 21.1412 26.1602 19.4455 26.8961C17.7499 27.632 15.9347 28 14 28ZM14 25.7583C14.752 24.7607 15.3849 23.7547 15.8988 22.7401C16.4127 21.7255 16.8312 20.6164 17.1543 19.4129H10.8457C11.1877 20.6542 11.6109 21.7822 12.1154 22.7968C12.6198 23.8114 13.248 24.7985 14 25.7583ZM11.1462 25.3531C10.5813 24.5425 10.074 23.621 9.62432 22.5885C9.17465 21.5559 8.82512 20.4974 8.57572 19.4129H3.57646C4.35488 20.9433 5.39876 22.229 6.70808 23.2701C8.01743 24.3111 9.4968 25.0055 11.1462 25.3531ZM16.8538 25.3531C18.5032 25.0055 19.9826 24.3111 21.2919 23.2701C22.6012 22.229 23.6451 20.9433 24.4235 19.4129H19.4243C19.1276 20.5069 18.7545 21.5701 18.3048 22.6027C17.8552 23.6352 17.3715 24.552 16.8538 25.3531ZM2.64977 17.2025H8.12794C8.03537 16.6546 7.9683 16.1175 7.92675 15.5913C7.88519 15.0651 7.86441 14.5347 7.86441 14C7.86441 13.4653 7.88519 12.9349 7.92675 12.4087C7.9683 11.8825 8.03537 11.3454 8.12794 10.7975H2.64977C2.50807 11.2982 2.39943 11.8187 2.32386 12.3591C2.24828 12.8994 2.2105 13.4464 2.2105 14C2.2105 14.5536 2.24828 15.1006 2.32386 15.6409C2.39943 16.1813 2.50807 16.7018 2.64977 17.2025ZM10.3384 17.2025H17.6616C17.7541 16.6546 17.8212 16.1222 17.8628 15.6055C17.9044 15.0887 17.9251 14.5536 17.9251 14C17.9251 13.4464 17.9044 12.9113 17.8628 12.3945C17.8212 11.8778 17.7541 11.3454 17.6616 10.7975H10.3384C10.2459 11.3454 10.1788 11.8778 10.1372 12.3945C10.0956 12.9113 10.0749 13.4464 10.0749 14C10.0749 14.5536 10.0956 15.0887 10.1372 15.6055C10.1788 16.1222 10.2459 16.6546 10.3384 17.2025ZM19.8721 17.2025H25.3502C25.4919 16.7018 25.6006 16.1813 25.6761 15.6409C25.7517 15.1006 25.7895 14.5536 25.7895 14C25.7895 13.4464 25.7517 12.8994 25.6761 12.3591C25.6006 11.8187 25.4919 11.2982 25.3502 10.7975H19.8721C19.9646 11.3454 20.0317 11.8825 20.0733 12.4087C20.1148 12.9349 20.1356 13.4653 20.1356 14C20.1356 14.5347 20.1148 15.0651 20.0733 15.5913C20.0317 16.1175 19.9646 16.6546 19.8721 17.2025ZM19.4243 8.58707H24.4235C23.6357 7.03778 22.5989 5.75206 21.3132 4.72991C20.0275 3.70779 18.541 3.00873 16.8538 2.63274C17.4187 3.4905 17.9213 4.42857 18.3615 5.44694C18.8017 6.4653 19.156 7.51202 19.4243 8.58707ZM10.8457 8.58707H17.1543C16.8123 7.35521 16.382 6.22018 15.8634 5.18197C15.3448 4.14378 14.7236 3.16368 14 2.24166C13.2764 3.16368 12.6552 4.14378 12.1366 5.18197C11.618 6.22018 11.1877 7.35521 10.8457 8.58707ZM3.57646 8.58707H8.57572C8.84401 7.51202 9.19827 6.4653 9.63851 5.44694C10.0787 4.42857 10.5813 3.4905 11.1462 2.63274C9.44957 3.00873 7.96075 3.71016 6.67975 4.73702C5.39877 5.76389 4.36434 7.04724 3.57646 8.58707Z" fill="#3575E2"/>
</svg>
