<svg width="25" height="25" viewBox="0 0 25 25" fill="none" xmlns="http://www.w3.org/2000/svg">
<path fill-rule="evenodd" clip-rule="evenodd" d="M4.6875 22.7464C4.6875 22.3315 5.03728 21.9952 5.46875 21.9952H19.5312C19.9627 21.9952 20.3125 22.3315 20.3125 22.7464C20.3125 23.1613 19.9627 23.4976 19.5312 23.4976H5.46875C5.03728 23.4976 4.6875 23.1613 4.6875 22.7464Z" fill="#3575E2"/>
<path fill-rule="evenodd" clip-rule="evenodd" d="M12.5 8.47356C11.2056 8.47356 10.1562 9.48253 10.1562 10.7272C10.1562 11.9718 11.2056 12.9808 12.5 12.9808C13.7944 12.9808 14.8438 11.9718 14.8438 10.7272C14.8438 9.48253 13.7944 8.47356 12.5 8.47356ZM8.59375 10.7272C8.59375 8.65278 10.3426 6.97116 12.5 6.97116C14.6574 6.97116 16.4062 8.65278 16.4062 10.7272C16.4062 12.8016 14.6574 14.4832 12.5 14.4832C10.3426 14.4832 8.59375 12.8016 8.59375 10.7272Z" fill="#3575E2"/>
<path fill-rule="evenodd" clip-rule="evenodd" d="M12.5 3.96635C10.6352 3.96635 8.84677 4.67865 7.52816 5.94654C6.20954 7.21444 5.46875 8.93408 5.46875 10.7272C5.46875 13.8371 7.27488 16.6689 9.18329 18.7792C10.1279 19.8237 11.0746 20.6659 11.7853 21.2468C12.0663 21.4765 12.3096 21.6646 12.5 21.8074C12.6904 21.6646 12.9337 21.4765 13.2147 21.2468C13.9254 20.6659 14.8721 19.8237 15.8167 18.7792C17.7251 16.6689 19.5312 13.8371 19.5312 10.7272C19.5312 8.93408 18.7905 7.21444 17.4718 5.94654C16.1532 4.67865 14.3648 3.96635 12.5 3.96635ZM12.5 22.7464C12.052 23.3618 12.0518 23.3617 12.0515 23.3615L12.0509 23.3611L12.049 23.3598L12.0433 23.3559L12.0234 23.3423C12.0065 23.3307 11.9824 23.314 11.9516 23.2924C11.89 23.2492 11.8015 23.1861 11.6899 23.1041C11.4668 22.9401 11.151 22.7001 10.7733 22.3915C10.0191 21.7751 9.01268 20.8801 8.00421 19.765C6.00637 17.5559 3.90625 14.378 3.90625 10.7272C3.90625 8.53562 4.81166 6.43384 6.4233 4.88418C8.03494 3.33453 10.2208 2.46394 12.5 2.46394C14.7792 2.46394 16.9651 3.33453 18.5767 4.88418C20.1883 6.43384 21.0938 8.53562 21.0938 10.7272C21.0938 14.378 18.9936 17.5559 16.9958 19.765C15.9873 20.8801 14.9809 21.7751 14.2267 22.3915C13.849 22.7001 13.5332 22.9401 13.3101 23.1041C13.1985 23.1861 13.11 23.2492 13.0484 23.2924C13.0176 23.314 12.9935 23.3307 12.9766 23.3423L12.9567 23.3559L12.951 23.3598L12.9491 23.3611L12.9485 23.3615C12.9482 23.3617 12.948 23.3618 12.5 22.7464ZM12.5 22.7464L12.948 23.3618C12.679 23.5429 12.321 23.5429 12.052 23.3618L12.5 22.7464Z" fill="#3575E2"/>
</svg>
