<svg width="225" height="81" viewBox="0 0 225 81" fill="none" xmlns="http://www.w3.org/2000/svg">
<g clip-path="url(#clip0_621_4519)">
<path d="M76.7143 38.0687C78 58 65 72.675 41.5 71.5C21.5 70.5 5 55.8949 5 37.4313C5 18.9677 20.766 4 40.2143 4C59.6626 4 75.5257 19.6434 76.7143 38.0687Z" fill="#3575E2" fill-opacity="0.4"/>
<ellipse cx="49.7858" cy="47.265" rx="35.2143" ry="33.4313" fill="#1A60D9" fill-opacity="0.69"/>
<path d="M34.8928 65V32.8H42.2528V65H34.8928ZM45.4854 32.8H69.4054V39.884H61.1254V65H53.7654V39.884H45.4854V32.8Z" fill="white" fill-opacity="0.95"/>
<path d="M92.5566 65V30H98.3066V65H92.5566ZM118.101 39.35C121.001 39.35 123.317 40.2833 125.051 42.15C126.817 43.9833 127.701 46.4833 127.701 49.65V65H122.301V50.2C122.301 48.3333 121.801 46.9 120.801 45.9C119.801 44.9 118.434 44.4 116.701 44.4C114.734 44.4 113.184 45.0167 112.051 46.25C110.917 47.45 110.351 49.2333 110.351 51.6V65H104.951V40H110.351V43.2C112.017 40.6333 114.601 39.35 118.101 39.35ZM147.465 40V45.2H141.265V57.2C141.265 58.2333 141.499 58.9833 141.965 59.45C142.432 59.8833 143.115 60.1333 144.015 60.2C144.949 60.2333 146.099 60.2167 147.465 60.15V65C143.332 65.5 140.365 65.15 138.565 63.95C136.765 62.7167 135.865 60.4667 135.865 57.2V45.2H131.265V40H135.865V34.6L141.265 33V40H147.465ZM175.488 54.8H155.588C155.988 56.6667 156.888 58.1167 158.288 59.15C159.721 60.1833 161.488 60.7 163.588 60.7C166.421 60.7 168.571 59.6667 170.038 57.6L174.488 60.2C172.054 63.8333 168.404 65.65 163.538 65.65C159.504 65.65 156.221 64.4167 153.688 61.95C151.188 59.45 149.938 56.3 149.938 52.5C149.938 48.8 151.171 45.6833 153.638 43.15C156.071 40.6167 159.238 39.35 163.138 39.35C166.771 39.35 169.771 40.6333 172.138 43.2C174.504 45.7667 175.688 48.8833 175.688 52.55C175.688 53.2167 175.621 53.9667 175.488 54.8ZM155.537 50.4H170.238C169.871 48.4333 169.038 46.9167 167.738 45.85C166.471 44.7833 164.921 44.25 163.088 44.25C161.088 44.25 159.421 44.8 158.088 45.9C156.754 47 155.904 48.5 155.537 50.4ZM185.839 40V44.2C187.206 41.1 189.772 39.55 193.539 39.55V45.4C191.506 45.2667 189.706 45.7667 188.139 46.9C186.606 48 185.839 49.8333 185.839 52.4V65H180.439V40H185.839ZM210.679 39.35C213.579 39.35 215.896 40.2833 217.629 42.15C219.396 43.9833 220.279 46.4833 220.279 49.65V65H214.879V50.2C214.879 48.3333 214.379 46.9 213.379 45.9C212.379 44.9 211.012 44.4 209.279 44.4C207.312 44.4 205.762 45.0167 204.629 46.25C203.496 47.45 202.929 49.2333 202.929 51.6V65H197.529V40H202.929V43.2C204.596 40.6333 207.179 39.35 210.679 39.35Z" fill="#223871"/>
</g>
<defs>
<clipPath id="clip0_621_4519">
<rect width="225" height="81" fill="white"/>
</clipPath>
</defs>
</svg>
