<svg width="27" height="27" viewBox="0 0 27 27" fill="none" xmlns="http://www.w3.org/2000/svg">
<path d="M24.918 13.3935C24.8869 13.2123 24.8381 13.037 24.7723 12.8703C24.6255 12.5314 24.3943 12.2478 24.1006 12.0461L11.2676 3.8134C10.975 3.62681 10.6357 3.52289 10.2783 3.51041C9.92097 3.49794 9.55609 3.57728 9.21456 3.74173C9.15169 3.76721 9.09061 3.79876 9.03216 3.83593C8.67072 4.04663 8.35769 4.34821 8.12459 4.71032L3.49052 11.9338C3.13936 12.4812 2.99424 13.1291 3.08707 13.735C3.17989 14.3409 3.50307 14.8551 3.98549 15.1646L16.7185 23.3332C17.2009 23.6427 17.8031 23.722 18.3925 23.5538C18.9819 23.3856 19.5103 22.9836 19.8615 22.4362L24.4956 15.2127C24.6747 14.9406 24.8043 14.6395 24.8768 14.3271C24.9494 14.0148 24.9634 13.6974 24.918 13.3935ZM18.952 21.8528C18.7764 22.1265 18.5122 22.3275 18.2175 22.4116C17.9228 22.4957 17.6217 22.456 17.3805 22.3012L4.6475 14.1327C4.40629 13.978 4.2447 13.7208 4.19829 13.4179C4.15188 13.1149 4.22444 12.791 4.40002 12.5173L9.03409 5.29379C9.15064 5.11273 9.30715 4.96194 9.48787 4.85659L9.54826 4.8225L9.60988 4.79648C9.77695 4.72141 9.95396 4.68674 10.1268 4.69522C10.2997 4.7037 10.4636 4.7551 10.6056 4.84533L23.3977 13.0518C23.5372 13.1496 23.6459 13.2871 23.713 13.4507C23.748 13.542 23.7749 13.6373 23.7936 13.7355C23.8364 14.0372 23.7618 14.3584 23.5861 14.6293L18.952 21.8528Z" fill="#18191C"/>
<path d="M21.5211 15.4694C21.3459 14.9543 21.3199 14.3686 21.4462 13.7803C21.4922 13.5855 21.4869 13.3902 21.4308 13.2182C21.3747 13.0461 21.2703 12.9046 21.13 12.8107L12.2625 7.12197C12.1187 7.03366 11.9465 6.99771 11.7668 7.01845C11.587 7.03919 11.4073 7.11573 11.2494 7.23885C10.7661 7.60376 10.2203 7.82814 9.67587 7.88575C9.52761 7.9013 9.37862 7.95569 9.24175 8.04423C9.10488 8.13277 8.98423 8.25279 8.89021 8.39395L7.16509 11.083C7.07376 11.2275 7.01335 11.3882 6.98928 11.5508C6.96521 11.7133 6.97824 11.8727 7.02719 12.0145C7.20406 12.5343 7.22646 13.1267 7.09166 13.7198C7.04559 13.9147 7.05092 14.11 7.10701 14.282C7.1631 14.4541 7.26756 14.5956 7.40777 14.6895L16.2753 20.3782C16.4191 20.4665 16.5913 20.5025 16.771 20.4817C16.9508 20.461 17.1305 20.3844 17.2884 20.2613C17.7714 19.8915 18.3192 19.6649 18.8654 19.609C19.0147 19.5944 19.165 19.5398 19.3027 19.4502C19.4405 19.3605 19.5613 19.2386 19.6546 19.0954L21.3797 16.4063C21.4714 16.2611 21.5323 16.0996 21.557 15.9362C21.5817 15.7728 21.5693 15.6125 21.5211 15.4694ZM18.8391 18.4035C18.1434 18.5016 17.4511 18.7954 16.832 19.2553L8.19637 13.7154C8.35635 12.9609 8.33479 12.2091 8.13387 11.5358L9.70565 9.08577C10.3874 8.9978 11.068 8.72122 11.6815 8.28287L20.3171 13.8228C20.1744 14.5632 20.2067 15.2972 20.4109 15.9535L18.8391 18.4035Z" fill="#18191C"/>
<path d="M16.3505 15.0855C16.6506 14.6178 16.8218 14.0822 16.8426 13.5466C16.8633 13.011 16.7327 12.4993 16.4672 12.0763C16.2016 11.6533 15.8131 11.338 15.3508 11.1702C14.8885 11.0024 14.3731 10.9897 13.8698 11.1336C13.3665 11.2776 12.8979 11.5718 12.5233 11.979C12.1487 12.3862 11.8849 12.8882 11.7652 13.4213C11.6456 13.9545 11.6754 14.495 11.8511 14.9745C12.0267 15.4539 12.3401 15.8508 12.7518 16.1149C13.3039 16.4691 13.9932 16.5596 14.6681 16.3666C15.343 16.1735 15.9482 15.7127 16.3505 15.0855ZM13.3587 15.169C13.1117 15.0105 12.9236 14.7724 12.8182 14.4847C12.7128 14.1971 12.6949 13.8728 12.7667 13.5528C12.8385 13.2329 12.9968 12.9318 13.2216 12.6874C13.4463 12.4431 13.7275 12.2666 14.0295 12.1802C14.3314 12.0938 14.6407 12.1015 14.9181 12.2021C15.1955 12.3028 15.4285 12.492 15.5879 12.7458C15.7472 12.9996 15.8256 13.3066 15.8131 13.628C15.8007 13.9494 15.6979 14.2707 15.5179 14.5513C15.2765 14.9276 14.9134 15.2041 14.5084 15.32C14.1035 15.4358 13.6899 15.3815 13.3587 15.169Z" fill="#18191C"/>
<rect width="21.5675" height="15" transform="translate(4.93921 5.97865) rotate(15.1221)" fill="white"/>
<path d="M24.8492 12.1571C24.7482 11.9735 24.6297 11.8019 24.4955 11.6448C24.2083 11.3299 23.8478 11.1012 23.4479 10.9803L6.18955 6.31654C5.79646 6.2114 5.38187 6.20969 4.98084 6.31153C4.57981 6.41338 4.20413 6.61579 3.88557 6.90165C3.82518 6.94915 3.76899 7.00256 3.71779 7.06113C3.39412 7.40285 3.15752 7.82611 3.0318 8.2883L0.541613 17.5032C0.352916 18.2015 0.429678 18.9408 0.755012 19.5585C1.08035 20.1763 1.6276 20.6218 2.27639 20.7971L19.4002 25.4246C20.049 25.5999 20.7462 25.4907 21.3384 25.1209C21.9306 24.7511 22.3693 24.1511 22.558 23.4528L25.0481 14.2379C25.147 13.8892 25.1803 13.5257 25.1461 13.1684C25.112 12.8111 25.011 12.4673 24.8492 12.1571ZM21.3348 23.1223C21.2405 23.4714 21.0211 23.7714 20.725 23.9563C20.4289 24.1412 20.0804 24.1958 19.756 24.1082L2.63213 19.4807C2.30774 19.393 2.03411 19.1703 1.87144 18.8614C1.70878 18.5525 1.67039 18.1829 1.76474 17.8338L4.25493 8.61884C4.31779 8.38774 4.43609 8.17611 4.59793 8.00525L4.65241 7.94935L4.71123 7.90168C4.86902 7.76759 5.05268 7.67347 5.24757 7.62681C5.44246 7.58016 5.6432 7.58226 5.83381 7.63295L23.0371 12.2819C23.2278 12.3415 23.3988 12.4534 23.5334 12.6067C23.6057 12.693 23.6705 12.7862 23.7272 12.8851C23.8855 13.1938 23.9206 13.5612 23.825 13.9074L21.3348 23.1223Z" fill="#18191C"/>
<path d="M21.8994 15.4865C21.5263 14.9951 21.2907 14.3797 21.22 13.7116C21.2012 13.4889 21.1263 13.2826 21.0043 13.1177C20.8824 12.9528 20.7185 12.8363 20.5326 12.7822L8.86206 9.62842C8.6742 9.58148 8.47397 9.59962 8.28553 9.68064C8.0971 9.76167 7.9285 9.90212 7.80008 10.0851C7.40294 10.6322 6.88795 11.0502 6.31539 11.2901C6.15944 11.3552 6.01643 11.462 5.8987 11.6012C5.78098 11.7404 5.69206 11.9078 5.63964 12.0891L4.71261 15.5195C4.66427 15.7033 4.65536 15.8943 4.68669 16.0754C4.71801 16.2565 4.78858 16.422 4.89208 16.557C5.26866 17.0528 5.50273 17.6767 5.56586 18.3527C5.58466 18.5755 5.65956 18.7817 5.78154 18.9466C5.90352 19.1115 6.06735 19.2281 6.25328 19.2821L17.9238 22.4359C18.1117 22.4829 18.3119 22.4647 18.5003 22.3837C18.6888 22.3027 18.8574 22.1622 18.9858 21.9793C19.3809 21.427 19.8973 21.006 20.4724 20.7673C20.6298 20.7028 20.7741 20.5954 20.8924 20.4548C21.0106 20.3141 21.0991 20.1446 21.15 19.9614L22.077 16.531C22.1255 16.3462 22.1347 16.1542 22.1037 15.9721C22.0728 15.7899 22.0026 15.6232 21.8994 15.4865ZM20.0171 19.4917C19.2941 19.8242 18.6441 20.3642 18.1326 21.0572L6.76736 17.9859C6.67456 17.1296 6.38502 16.3357 5.92791 15.6843L6.77253 12.5588C7.48381 12.2416 8.12715 11.7238 8.64013 11.0557L20.0054 14.127C20.112 14.9626 20.407 15.7339 20.8617 16.3662L20.0171 19.4917Z" fill="#18191C"/>
<path d="M16.1325 16.7725C16.2937 16.1758 16.2907 15.5491 16.1237 14.9717C15.9568 14.3942 15.6334 13.8919 15.1945 13.5283C14.7556 13.1647 14.2209 12.9561 13.6581 12.9289C13.0952 12.9017 12.5294 13.0571 12.0322 13.3755C11.5351 13.6939 11.1289 14.1609 10.8651 14.7175C10.6012 15.2742 10.4916 15.8954 10.5499 16.5027C10.6083 17.11 10.8321 17.676 11.1931 18.1292C11.554 18.5825 12.0359 18.9025 12.5777 19.049C13.3043 19.2453 14.087 19.1158 14.7536 18.6888C15.4203 18.2619 15.9163 17.5726 16.1325 16.7725ZM12.9038 17.8422C12.5787 17.7544 12.2896 17.5623 12.073 17.2904C11.8565 17.0185 11.7222 16.6788 11.6871 16.3145C11.6521 15.9501 11.7179 15.5774 11.8762 15.2434C12.0345 14.9094 12.2782 14.6292 12.5765 14.4382C12.8748 14.2471 13.2143 14.1539 13.552 14.1702C13.8897 14.1865 14.2106 14.3117 14.4739 14.5299C14.7372 14.748 14.9312 15.0494 15.0314 15.3959C15.1316 15.7424 15.1334 16.1184 15.0367 16.4764C14.907 16.9564 14.6094 17.37 14.2094 17.6262C13.8094 17.8823 13.3398 17.96 12.9038 17.8422Z" fill="#18191C"/>
</svg>
