<svg width="18" height="14" viewBox="0 0 18 14" fill="none" xmlns="http://www.w3.org/2000/svg">
<path d="M17.4198 1.16773C17.305 1.03693 17.1794 0.920132 17.0448 0.819091C16.7612 0.620567 16.4394 0.510748 16.1098 0.5H1.99998C1.67883 0.500913 1.36259 0.593213 1.078 0.769094C0.793417 0.944975 0.548854 1.19926 0.364996 1.51045C0.328763 1.56385 0.296951 1.62124 0.269997 1.68182C0.0937456 2.0409 0.000623332 2.44851 0 2.86364V11.1364C0 11.7632 0.210712 12.3644 0.585781 12.8077C0.96085 13.251 1.46955 13.5 1.99998 13.5H15.9998C16.5303 13.5 17.039 13.251 17.414 12.8077C17.7891 12.3644 17.9998 11.7632 17.9998 11.1364V2.86364C18.0033 2.54959 17.9539 2.23787 17.8543 1.94669C17.7547 1.6555 17.607 1.39069 17.4198 1.16773ZM16.9998 11.1364C16.9998 11.4498 16.8945 11.7504 16.7069 11.972C16.5194 12.1937 16.2651 12.3182 15.9998 12.3182H1.99998C1.73477 12.3182 1.48042 12.1937 1.29288 11.972C1.10535 11.7504 0.99999 11.4498 0.99999 11.1364V2.86364C1.0003 2.65607 1.04686 2.45227 1.13499 2.27273L1.16499 2.21364L1.19999 2.16045C1.29261 2.01259 1.41316 1.89232 1.55205 1.80923C1.69093 1.72613 1.84431 1.6825 1.99998 1.68182H16.0648C16.2224 1.68855 16.3757 1.74353 16.5098 1.84136C16.5827 1.89726 16.6513 1.96053 16.7148 2.03045C16.899 2.25299 17.0014 2.55239 16.9998 2.86364V11.1364Z" fill="#5E6670"/>
<path d="M15.7348 4.6202C15.3272 4.29343 15.0034 3.83181 14.801 3.28878C14.7373 3.10669 14.6321 2.95106 14.4979 2.84067C14.3637 2.73027 14.2064 2.66983 14.0448 2.66663H3.9553C3.79373 2.66983 3.63635 2.73027 3.50217 2.84067C3.368 2.95106 3.26274 3.10669 3.1991 3.28878C2.99826 3.83638 2.67435 4.30252 2.26526 4.63265C2.1538 4.72243 2.06184 4.84411 1.99729 4.98719C1.93275 5.13026 1.89756 5.29044 1.89478 5.4539V8.53358C1.89585 8.69832 1.93027 8.86015 1.99493 9.00457C2.05959 9.14899 2.15248 9.27148 2.26526 9.36105C2.67662 9.69073 3.00104 10.1597 3.1991 10.7111C3.26274 10.8932 3.368 11.0489 3.50217 11.1593C3.63635 11.2696 3.79373 11.3301 3.9553 11.3333H14.0448C14.2064 11.3301 14.3637 11.2696 14.4979 11.1593C14.6321 11.0489 14.7373 10.8932 14.801 10.7111C14.999 10.1597 15.3235 9.69073 15.7348 9.36105C15.8476 9.27148 15.9405 9.14899 16.0051 9.00457C16.0698 8.86015 16.1042 8.69832 16.1053 8.53358V5.4539C16.1042 5.28832 16.0698 5.12563 16.0051 4.98023C15.9405 4.83482 15.8477 4.71117 15.7348 4.6202ZM15.0903 8.3967C14.5801 8.83838 14.174 9.43711 13.9128 10.1325H4.08726C3.82606 9.43711 3.41993 8.83838 2.90981 8.3967V5.59077C3.41382 5.16457 3.81942 4.58591 4.08726 3.91094H13.9128C14.1807 4.58591 14.5863 5.16457 15.0903 5.59077V8.3967Z" fill="#5E6670"/>
<path d="M11.3684 6.99996C11.3684 6.4643 11.2295 5.94067 10.9693 5.49529C10.709 5.04991 10.3391 4.70277 9.90637 4.49779C9.4736 4.2928 8.99739 4.23917 8.53796 4.34367C8.07853 4.44817 7.65652 4.70611 7.32529 5.08488C6.99406 5.46365 6.76849 5.94622 6.6771 6.47159C6.58572 6.99695 6.63262 7.54151 6.81188 8.03639C6.99114 8.53128 7.2947 8.95426 7.68419 9.25186C8.07367 9.54945 8.53158 9.70829 9.00001 9.70829C9.62816 9.70829 10.2306 9.42295 10.6747 8.91504C11.1189 8.40713 11.3684 7.71825 11.3684 6.99996ZM9.00001 8.62496C8.71896 8.62496 8.44421 8.52965 8.21052 8.3511C7.97683 8.17254 7.79469 7.91875 7.68713 7.62182C7.57958 7.32489 7.55143 6.99816 7.60627 6.68294C7.6611 6.36772 7.79644 6.07817 7.99518 5.85091C8.19392 5.62365 8.44712 5.46889 8.72278 5.40618C8.99844 5.34348 9.28416 5.37566 9.54383 5.49866C9.80349 5.62165 10.0254 5.82993 10.1816 6.09716C10.3377 6.36439 10.4211 6.67857 10.4211 6.99996C10.4211 7.43094 10.2713 7.84426 10.0048 8.14901C9.73835 8.45375 9.3769 8.62496 9.00001 8.62496Z" fill="#5E6670"/>
</svg>
