<svg width="25" height="25" viewBox="0 0 25 25" fill="none" xmlns="http://www.w3.org/2000/svg">
<mask id="mask0_1166_1049" style="mask-type:alpha" maskUnits="userSpaceOnUse" x="0" y="0" width="25" height="25">
<rect x="0.956055" y="0.589355" width="24" height="24" fill="#D9D9D9"/>
</mask>
<g mask="url(#mask0_1166_1049)">
<path d="M18.7061 20.8394C17.6561 20.8394 16.7686 20.4769 16.0436 19.7519C15.3186 19.0269 14.9561 18.1394 14.9561 17.0894C14.9561 16.0394 15.3186 15.1519 16.0436 14.4269C16.7686 13.7019 17.6561 13.3394 18.7061 13.3394C19.7561 13.3394 20.6436 13.7019 21.3686 14.4269C22.0936 15.1519 22.4561 16.0394 22.4561 17.0894C22.4561 18.1394 22.0936 19.0269 21.3686 19.7519C20.6436 20.4769 19.7561 20.8394 18.7061 20.8394ZM18.7061 18.8394C19.1894 18.8394 19.6019 18.6685 19.9436 18.3269C20.2852 17.9852 20.4561 17.5727 20.4561 17.0894C20.4561 16.606 20.2852 16.1935 19.9436 15.8519C19.6019 15.5102 19.1894 15.3394 18.7061 15.3394C18.2227 15.3394 17.8102 15.5102 17.4686 15.8519C17.1269 16.1935 16.9561 16.606 16.9561 17.0894C16.9561 17.5727 17.1269 17.9852 17.4686 18.3269C17.8102 18.6685 18.2227 18.8394 18.7061 18.8394ZM4.95605 18.0894V16.0894H12.9561V18.0894H4.95605ZM7.20605 11.8394C6.15605 11.8394 5.26855 11.4769 4.54355 10.7519C3.81855 10.0269 3.45605 9.13936 3.45605 8.08936C3.45605 7.03936 3.81855 6.15186 4.54355 5.42686C5.26855 4.70186 6.15605 4.33936 7.20605 4.33936C8.25605 4.33936 9.14355 4.70186 9.86855 5.42686C10.5936 6.15186 10.9561 7.03936 10.9561 8.08936C10.9561 9.13936 10.5936 10.0269 9.86855 10.7519C9.14355 11.4769 8.25605 11.8394 7.20605 11.8394ZM7.20605 9.83936C7.68939 9.83936 8.10189 9.66852 8.44355 9.32686C8.78522 8.98519 8.95605 8.57269 8.95605 8.08936C8.95605 7.60602 8.78522 7.19352 8.44355 6.85186C8.10189 6.51019 7.68939 6.33936 7.20605 6.33936C6.72272 6.33936 6.31022 6.51019 5.96855 6.85186C5.62689 7.19352 5.45605 7.60602 5.45605 8.08936C5.45605 8.57269 5.62689 8.98519 5.96855 9.32686C6.31022 9.66852 6.72272 9.83936 7.20605 9.83936ZM12.9561 9.08936V7.08936H20.9561V9.08936H12.9561Z" fill="#1C1B1F"/>
</g>
</svg>
