<svg width="24" height="24" viewBox="0 0 24 24" fill="none" xmlns="http://www.w3.org/2000/svg">
<mask id="mask0_1017_780" style="mask-type:alpha" maskUnits="userSpaceOnUse" x="0" y="0" width="24" height="24">
<rect width="24" height="24" fill="#D9D9D9"/>
</mask>
<g mask="url(#mask0_1017_780)">
<path d="M2 21.9V20H21V21.9H2ZM3.9 19.05V13.35C3.3775 12.495 2.97375 11.5885 2.68875 10.6306C2.40375 9.67271 2.26125 8.695 2.26125 7.6975C2.26125 6.73167 2.38396 5.78167 2.62938 4.8475C2.87479 3.91333 3.16375 2.995 3.49625 2.0925C3.62292 1.76 3.82875 1.49479 4.11375 1.29688C4.39875 1.09896 4.71542 1 5.06375 1C5.55458 1 5.97417 1.16625 6.3225 1.49875C6.67083 1.83125 6.81333 2.22708 6.75 2.68625L6.48875 4.8475C6.39375 5.6075 6.46104 6.32792 6.69062 7.00875C6.92021 7.68958 7.26458 8.28729 7.72375 8.80188C8.18292 9.31646 8.73708 9.72812 9.38625 10.0369C10.0354 10.3456 10.74 10.5 11.5 10.5C12.45 10.5 13.404 10.599 14.3619 10.7969C15.3198 10.9948 16.155 11.2758 16.8675 11.64C17.58 12.0042 18.1302 12.4673 18.5181 13.0294C18.906 13.5915 19.1 14.2842 19.1 15.1075V19.05H3.9ZM5.8 17.15H17.2V15.1075C17.2 14.7275 17.105 14.391 16.915 14.0981C16.725 13.8052 16.4558 13.5717 16.1075 13.3975C15.4583 13.0808 14.7063 12.8354 13.8513 12.6613C12.9963 12.4871 12.2125 12.4 11.5 12.4C10.455 12.4 9.48521 12.1862 8.59062 11.7587C7.69604 11.3312 6.93604 10.7573 6.31063 10.0369C5.68521 9.31646 5.21417 8.48521 4.8975 7.54313C4.58083 6.60104 4.48583 5.62333 4.6125 4.61C4.45417 5.085 4.33938 5.59167 4.26813 6.13C4.19688 6.66833 4.16125 7.19083 4.16125 7.6975C4.16125 8.61583 4.32354 9.49854 4.64813 10.3456C4.97271 11.1927 5.35667 12.02 5.8 12.8275V17.15ZM11.5 9.55C10.455 9.55 9.56042 9.17792 8.81625 8.43375C8.07208 7.68958 7.7 6.795 7.7 5.75C7.7 4.705 8.07208 3.81042 8.81625 3.06625C9.56042 2.32208 10.455 1.95 11.5 1.95C12.545 1.95 13.4396 2.32208 14.1837 3.06625C14.9279 3.81042 15.3 4.705 15.3 5.75C15.3 6.795 14.9279 7.68958 14.1837 8.43375C13.4396 9.17792 12.545 9.55 11.5 9.55ZM11.5 7.65C12.0225 7.65 12.4698 7.46396 12.8419 7.09187C13.214 6.71979 13.4 6.2725 13.4 5.75C13.4 5.2275 13.214 4.78021 12.8419 4.40813C12.4698 4.03604 12.0225 3.85 11.5 3.85C10.9775 3.85 10.5302 4.03604 10.1581 4.40813C9.78604 4.78021 9.6 5.2275 9.6 5.75C9.6 6.2725 9.78604 6.71979 10.1581 7.09187C10.5302 7.46396 10.9775 7.65 11.5 7.65ZM7.7 19.05V18.1713C7.7 17.1104 8.06812 16.2 8.80437 15.44C9.54062 14.68 10.4392 14.3 11.5 14.3H15.3V16.2H11.5C10.9617 16.2 10.5104 16.394 10.1462 16.7819C9.78208 17.1698 9.6 17.6329 9.6 18.1713V19.05H7.7Z" fill="#5A5F65"/>
</g>
</svg>
