<svg width="58" height="58" viewBox="0 0 58 58" fill="none" xmlns="http://www.w3.org/2000/svg">
<mask id="mask0_1017_764" style="mask-type:alpha" maskUnits="userSpaceOnUse" x="0" y="0" width="58" height="58">
<rect width="58" height="58" fill="#D9D9D9"/>
</mask>
<g mask="url(#mask0_1017_764)">
<path d="M13.6737 42.5934C16.2372 40.8212 18.7805 39.4618 21.3033 38.5153C23.8262 37.5688 26.5322 37.0955 29.4213 37.0955C32.3104 37.0955 35.0266 37.5688 37.5698 38.5153C40.113 39.4618 42.6664 40.8212 45.23 42.5934C47.0204 40.4184 48.292 38.2233 49.0448 36.008C49.7976 33.7927 50.174 31.4566 50.174 28.9997C50.174 23.1594 48.1903 18.2757 44.2229 14.3486C40.2554 10.4215 35.3216 8.45801 29.4213 8.45801C23.521 8.45801 18.5872 10.4215 14.6197 14.3486C10.6523 18.2757 8.66859 23.1594 8.66859 28.9997C8.66859 31.4566 9.05516 33.7927 9.8283 36.008C10.6014 38.2233 11.8832 40.4184 13.6737 42.5934ZM29.4099 30.8122C27.0574 30.8122 25.0775 30.0129 23.4702 28.4145C21.8628 26.816 21.0592 24.8525 21.0592 22.5239C21.0592 20.1952 21.8666 18.2354 23.4815 16.6445C25.0964 15.0535 27.0801 14.258 29.4327 14.258C31.7852 14.258 33.7651 15.0572 35.3724 16.6557C36.9798 18.2542 37.7834 20.2177 37.7834 22.5463C37.7834 24.8749 36.976 26.8347 35.3611 28.4257C33.7462 30.0167 31.7625 30.8122 29.4099 30.8122ZM29.4499 53.1663C26.0941 53.1663 22.931 52.532 19.9605 51.2632C16.99 49.9945 14.3959 48.2625 12.1782 46.0674C9.96055 43.8722 8.21081 41.3092 6.92903 38.3784C5.64724 35.4475 5.00635 32.3159 5.00635 28.9836C5.00635 25.6513 5.64724 22.525 6.92903 19.6049C8.21081 16.6847 9.96055 14.1271 12.1782 11.932C14.3959 9.73683 16.9853 8.00488 19.9462 6.73613C22.9072 5.46738 26.071 4.83301 29.4375 4.83301C32.8041 4.83301 35.9625 5.46738 38.9126 6.73613C41.8628 8.00488 44.4467 9.73683 46.6644 11.932C48.8821 14.1271 50.6318 16.6854 51.9136 19.6068C53.1954 22.5282 53.8363 25.6498 53.8363 28.9714C53.8363 32.293 53.1954 35.424 51.9136 38.3643C50.6318 41.3045 48.8821 43.8722 46.6644 46.0674C44.4467 48.2625 41.8621 49.9945 38.9107 51.2632C35.9592 52.532 32.8056 53.1663 29.4499 53.1663ZM29.4213 49.5413C31.6593 49.5413 33.8465 49.2191 35.9828 48.5747C38.1191 47.9302 40.2249 46.8025 42.3002 45.1913C40.2249 43.7413 38.109 42.6337 35.9523 41.8684C33.7956 41.1031 31.6186 40.7205 29.4213 40.7205C27.224 40.7205 25.047 41.1031 22.8903 41.8684C20.7336 42.6337 18.6177 43.7413 16.5424 45.1913C18.6177 46.8025 20.7235 47.9302 22.8598 48.5747C24.9961 49.2191 27.1833 49.5413 29.4213 49.5413ZM29.4213 27.1872C30.8048 27.1872 31.934 26.7542 32.8089 25.8882C33.6837 25.0222 34.1212 23.9045 34.1212 22.5351C34.1212 21.1656 33.6837 20.0479 32.8089 19.182C31.934 18.316 30.8048 17.883 29.4213 17.883C28.0378 17.883 26.9086 18.316 26.0337 19.182C25.1589 20.0479 24.7214 21.1656 24.7214 22.5351C24.7214 23.9045 25.1589 25.0222 26.0337 25.8882C26.9086 26.7542 28.0378 27.1872 29.4213 27.1872Z" fill="#3173E4"/>
</g>
</svg>
