<svg width="24" height="24" viewBox="0 0 24 24" fill="none" xmlns="http://www.w3.org/2000/svg">
<path d="M0 24V7.9012C0 6.29149 0.42497 4.87881 1.27491 3.66317C2.12485 2.44752 3.30311 1.53578 4.80971 0.92795C5.90714 0.510139 7.09176 0.251033 8.36355 0.150633C9.63536 0.0502113 10.8475 0 12 0C13.1525 0 14.3668 0.0502113 15.6429 0.150633C16.919 0.251033 18.1058 0.510139 19.2032 0.92795C20.7152 1.53578 21.8927 2.44752 22.7356 3.66317C23.5785 4.87881 24 6.29149 24 7.9012V24H0ZM7.85746 22.413H16.1377L13.9142 20.1004H10.0729L7.85746 22.413ZM6.08904 13.5968H17.919V8.16356H6.08904V13.5968ZM16.156 17.5741C16.4764 17.5741 16.7443 17.4657 16.9596 17.249C17.1749 17.0322 17.2826 16.7636 17.2826 16.4432C17.2826 16.1228 17.1742 15.8549 16.9575 15.6396C16.7407 15.4243 16.4721 15.3166 16.1517 15.3166C15.8313 15.3166 15.5634 15.425 15.3481 15.6418C15.1328 15.8585 15.0251 16.1271 15.0251 16.4475C15.0251 16.7679 15.1335 17.0358 15.3502 17.2511C15.567 17.4664 15.8356 17.5741 16.156 17.5741ZM7.8483 17.5741C8.1687 17.5741 8.43657 17.4657 8.6519 17.249C8.86722 17.0322 8.97489 16.7636 8.97489 16.4432C8.97489 16.1228 8.86652 15.8549 8.64978 15.6396C8.43302 15.4243 8.16444 15.3166 7.84404 15.3166C7.52362 15.3166 7.25574 15.425 7.04042 15.6418C6.82509 15.8585 6.71743 16.1271 6.71743 16.4475C6.71743 16.7679 6.8258 17.0358 7.04253 17.2511C7.25929 17.4664 7.52788 17.5741 7.8483 17.5741ZM1.587 22.413H6.54576V21.7814L8.18301 20.0632C7.31122 20.013 6.53106 19.6694 5.84253 19.0324C5.154 18.3954 4.80974 17.525 4.80974 16.4211V8.16356C4.80974 6.80271 5.49138 5.89948 6.85467 5.45386C8.21794 5.00823 9.93305 4.78542 12 4.78542C14.0027 4.78542 15.7018 5.00823 17.0972 5.45386C18.4926 5.89948 19.1903 6.80271 19.1903 8.16356V16.4211C19.1903 17.4796 18.8695 18.3354 18.2279 18.9883C17.5864 19.6412 16.7827 19.9995 15.817 20.0632L17.4542 21.7814V22.413H22.413V7.90249C22.413 6.57045 22.0925 5.45274 21.4514 4.54937C20.8104 3.646 19.8509 2.93824 18.5729 2.42609C17.6199 2.04754 16.563 1.81306 15.4025 1.72264C14.2419 1.63222 13.1084 1.587 12.0021 1.587C10.8957 1.587 9.7637 1.63222 8.60607 1.72264C7.44843 1.81306 6.39423 2.04754 5.44347 2.42609C4.16858 2.93824 3.20711 3.646 2.55907 4.54937C1.91103 5.45274 1.587 6.57045 1.587 7.90249V22.413Z" fill="#3575E2"/>
</svg>
