<svg width="258" height="324" viewBox="0 0 258 324" fill="none" xmlns="http://www.w3.org/2000/svg">
<rect width="258" height="324" rx="17" fill="#EFF4FD"/>
<path d="M129 157.394C116.167 157.394 105.181 152.822 96.0419 143.677C86.903 134.532 82.3335 123.539 82.3335 110.697C82.3335 97.8555 86.903 86.8622 96.0419 77.7174C105.181 68.5725 116.167 64 129 64C141.833 64 152.819 68.5725 161.958 77.7174C171.097 86.8622 175.666 97.8555 175.666 110.697C175.666 123.539 171.097 134.532 161.958 143.677C152.819 152.822 141.833 157.394 129 157.394ZM29 259V229.34C29 222.806 30.7736 216.755 34.3207 211.187C37.8676 205.619 42.6068 201.339 48.5384 198.345C61.718 191.879 75.0129 187.03 88.4232 183.797C101.833 180.564 115.359 178.948 129 178.948C142.641 178.948 156.167 180.564 169.577 183.797C182.987 187.03 196.282 191.879 209.462 198.345C215.393 201.339 220.132 205.619 223.679 211.187C227.226 216.755 229 222.806 229 229.34V259H29ZM48.9997 238.987H209V229.34C209 226.637 208.218 224.135 206.654 221.835C205.09 219.534 202.966 217.657 200.282 216.203C188.795 210.541 177.082 206.252 165.143 203.335C153.204 200.419 141.156 198.96 129 198.96C116.844 198.96 104.796 200.419 92.8572 203.335C80.9181 206.252 69.2049 210.541 57.7178 216.203C55.034 217.657 52.9101 219.534 51.3461 221.835C49.7818 224.135 48.9997 226.637 48.9997 229.34V238.987ZM129 137.382C136.333 137.382 142.611 134.769 147.833 129.543C153.056 124.317 155.667 118.036 155.667 110.697C155.667 103.359 153.056 97.0772 147.833 91.8515C142.611 86.6258 136.333 84.0129 129 84.0129C121.667 84.0129 115.389 86.6258 110.167 91.8515C104.944 97.0772 102.333 103.359 102.333 110.697C102.333 118.036 104.944 124.317 110.167 129.543C115.389 134.769 121.667 137.382 129 137.382Z" fill="#5C8FE4" fill-opacity="0.79"/>
</svg>
