<svg width="25" height="25" viewBox="0 0 25 25" fill="none" xmlns="http://www.w3.org/2000/svg">
<mask id="mask0_1164_1001" style="mask-type:alpha" maskUnits="userSpaceOnUse" x="0" y="0" width="25" height="25">
<rect x="0.21582" y="0.331055" width="24" height="24" fill="#D9D9D9"/>
</mask>
<g mask="url(#mask0_1164_1001)">
<path d="M4.21582 21.3311C3.66582 21.3311 3.19499 21.1352 2.80332 20.7436C2.41165 20.3519 2.21582 19.8811 2.21582 19.3311V8.33105C2.21582 7.78105 2.41165 7.31022 2.80332 6.91855C3.19499 6.52689 3.66582 6.33105 4.21582 6.33105H8.21582V4.33105C8.21582 3.78105 8.41165 3.31022 8.80332 2.91855C9.19499 2.52689 9.66582 2.33105 10.2158 2.33105H14.2158C14.7658 2.33105 15.2367 2.52689 15.6283 2.91855C16.02 3.31022 16.2158 3.78105 16.2158 4.33105V6.33105H20.2158C20.7658 6.33105 21.2367 6.52689 21.6283 6.91855C22.02 7.31022 22.2158 7.78105 22.2158 8.33105V19.3311C22.2158 19.8811 22.02 20.3519 21.6283 20.7436C21.2367 21.1352 20.7658 21.3311 20.2158 21.3311H4.21582ZM4.21582 19.3311H20.2158V8.33105H4.21582V19.3311ZM10.2158 6.33105H14.2158V4.33105H10.2158V6.33105Z" fill="#5A5F65"/>
</g>
</svg>
